<svg width="26" height="26" viewBox="0 0 26 26" fill="none" xmlns="http://www.w3.org/2000/svg">
<path d="M12.9497 0.712402C10.4186 0.712402 7.94436 1.43295 5.83985 2.78292C3.73535 4.13289 2.09508 6.05166 1.12649 8.29658C0.157889 10.5415 -0.0955406 13.0117 0.398246 15.3949C0.892033 17.7781 2.11086 19.9672 3.90059 21.6854C5.69033 23.4036 7.97059 24.5737 10.453 25.0478C12.9355 25.5218 15.5086 25.2785 17.847 24.3486C20.1854 23.4188 22.184 21.8441 23.5902 19.8237C24.9964 17.8033 25.747 15.428 25.747 12.9981C25.7431 9.74087 24.3936 6.61809 21.9945 4.31488C19.5953 2.01166 16.3425 0.716089 12.9497 0.712402ZM12.9497 23.3937C10.808 23.3937 8.7144 22.784 6.93367 21.6417C5.15293 20.4995 3.76502 18.8759 2.94543 16.9763C2.12585 15.0768 1.91141 12.9866 2.32923 10.97C2.74705 8.95348 3.77836 7.10116 5.29276 5.64731C6.80715 4.19346 8.7366 3.20338 10.8371 2.80226C12.9376 2.40114 15.1149 2.60701 17.0935 3.39383C19.0722 4.18065 20.7634 5.51308 21.9532 7.22263C23.1431 8.93217 23.7781 10.9421 23.7781 12.9981C23.7749 15.7542 22.633 18.3966 20.603 20.3455C18.5729 22.2944 15.8205 23.3906 12.9497 23.3937ZM18.8561 12.9981C18.8561 13.2488 18.7524 13.4891 18.5678 13.6664C18.3831 13.8436 18.1328 13.9432 17.8717 13.9432H13.9341V17.7234C13.9341 17.974 13.8303 18.2144 13.6457 18.3916C13.4611 18.5689 13.2107 18.6684 12.9497 18.6684C12.6886 18.6684 12.4382 18.5689 12.2536 18.3916C12.069 18.2144 11.9652 17.974 11.9652 17.7234V13.9432H8.02761C7.76653 13.9432 7.51614 13.8436 7.33153 13.6664C7.14692 13.4891 7.0432 13.2488 7.0432 12.9981C7.0432 12.7475 7.14692 12.5071 7.33153 12.3299C7.51614 12.1526 7.76653 12.0531 8.02761 12.0531H11.9652V8.27284C11.9652 8.0222 12.069 7.78182 12.2536 7.60459C12.4382 7.42735 12.6886 7.32779 12.9497 7.32779C13.2107 7.32779 13.4611 7.42735 13.6457 7.60459C13.8303 7.78182 13.9341 8.0222 13.9341 8.27284V12.0531H17.8717C18.1328 12.0531 18.3831 12.1526 18.5678 12.3299C18.7524 12.5071 18.8561 12.7475 18.8561 12.9981Z" fill="white"/>
</svg>
