<svg width="551" height="403" viewBox="0 0 551 403" fill="none" xmlns="http://www.w3.org/2000/svg">
<g clip-path="url(#clip0_631_458)">
<path d="M307.561 396.424C416.861 396.424 505.467 307.819 505.467 198.519C505.467 89.2187 416.861 0.613586 307.561 0.613586C198.261 0.613586 109.656 89.2187 109.656 198.519C109.656 307.819 198.261 396.424 307.561 396.424Z" fill="#F2F2F2"/>
<path d="M368.048 124.239C396.472 124.239 419.514 101.197 419.514 72.7727C419.514 44.3489 396.472 21.3068 368.048 21.3068C339.624 21.3068 316.582 44.3489 316.582 72.7727C316.582 101.197 339.624 124.239 368.048 124.239Z" fill="#FF6584"/>
<path d="M152.292 39.0718L153.699 68.4002C159.53 76.1779 165.821 85.0783 172.03 94.7785L172.917 50.035L173.406 50.3476C166.224 45.217 158.923 41.2916 151.803 38.7999L152.292 39.0718Z" fill="#6C63FF"/>
<path d="M152.675 67.0375L151.312 38.6279C143.316 35.9008 135.557 34.996 128.465 36.2609C128.096 36.3267 127.733 36.4024 127.371 36.4792C129.173 38.4125 139.675 49.8302 152.675 67.0375Z" fill="#6C63FF"/>
<path d="M217.241 102.027L217.713 102.478C215.775 98.8326 213.72 95.2887 211.55 91.8459L198.325 143.881L198.102 143.684C199.058 145.966 199.967 148.233 200.829 150.485L217.241 102.027Z" fill="#6C63FF"/>
<path d="M197.095 72.4446L197.582 72.8343C190.591 64.5502 182.642 57.1234 173.904 50.709L173 96.305C178.778 105.423 183.951 114.404 188.519 123.249L197.095 72.4446Z" fill="#6C63FF"/>
<path d="M101.164 86.68C101.907 94.3653 103.425 101.956 105.694 109.336L184.554 117.47C180.437 109.878 176.187 102.756 172.062 96.2643L101.365 87.3L101.164 86.68Z" fill="#6C63FF"/>
<path d="M108.564 117.847L108.351 117.228L188.165 124.322C187.201 122.436 186.226 120.575 185.24 118.739L106.089 110.575L105.881 109.955C106.679 112.557 107.573 115.187 108.564 117.847Z" fill="#6C63FF"/>
<path d="M210.652 90.761L211.132 91.1841C207.175 84.9605 202.802 79.0111 198.044 73.3763L189.352 124.868C192.364 130.782 195.093 136.614 197.538 142.362L210.652 90.761Z" fill="#6C63FF"/>
<path d="M208.963 176.775C212.135 190.501 213.337 203.48 212.543 215.567C217.007 206.057 233.98 166.66 227.636 129.943L208.963 176.775Z" fill="#6C63FF"/>
<path d="M123.205 145.597C127.428 151.286 132.028 156.685 136.973 161.759L136.781 161.071L207.777 175.677C205.93 168.012 203.625 160.465 200.875 153.077L123.205 145.597Z" fill="#6C63FF"/>
<path d="M152.061 67.5165C137.991 48.903 126.889 37.1384 126.729 36.97L126.912 36.5779C116.235 39.0018 108.697 46.2662 104.549 56.7809L152.061 67.5165Z" fill="#6C63FF"/>
<path d="M201.486 152.232C201.748 152.932 202.015 153.634 202.268 154.331C204.707 161.011 206.779 167.818 208.477 174.723L226.973 128.335L227.425 128.788C226.254 122.334 224.27 116.053 221.52 110.097C220.429 107.761 219.287 105.461 218.094 103.196L201.486 152.232Z" fill="#6C63FF"/>
<path d="M171.236 94.9708C165.09 85.3851 158.871 76.5917 153.106 68.9055L104.504 57.9232L104.339 57.3098C101.305 65.3001 100.195 75.116 101.114 86.0795L171.236 94.9708Z" fill="#6C63FF"/>
<path d="M208.065 176.896L137.588 162.396C167.232 192.827 208.706 216.166 211.353 217.641C212.588 204.233 211.188 190.462 208.065 176.896Z" fill="#6C63FF"/>
<path d="M200.375 151.827L200.391 151.781C197.002 142.847 193.135 134.102 188.805 125.584L108.795 118.472C110.153 122.069 111.689 125.705 113.401 129.379C115.894 134.613 118.86 139.61 122.262 144.305L200.375 151.827Z" fill="#6C63FF"/>
<path d="M302.153 137.858L284.53 161.344C284.061 171.054 283.229 181.921 281.824 193.352L311.045 159.457L311.222 160.009C308.963 151.477 305.844 143.797 301.949 137.337L302.153 137.858Z" fill="#6C63FF"/>
<path d="M284.609 159.64L301.68 136.891C297.261 129.69 291.862 124.044 285.593 120.495C285.267 120.31 284.939 120.137 284.611 119.966C284.766 122.604 285.572 138.096 284.609 159.64Z" fill="#6C63FF"/>
<path d="M312.022 227.771L312.098 228.419C312.93 224.376 313.608 220.336 314.132 216.3L270.758 247.942L270.712 247.647C269.992 250.015 269.247 252.341 268.475 254.626L312.022 227.771Z" fill="#6C63FF"/>
<path d="M315.372 192.138L315.499 192.748C315.398 181.909 314.013 171.119 311.374 160.605L281.596 195.146C280.23 205.854 278.486 216.071 276.363 225.796L315.372 192.138Z" fill="#6C63FF"/>
<path d="M232.409 141.916C228.079 148.309 224.407 155.123 221.447 162.254L276.997 218.817C278.668 210.344 279.938 202.148 280.901 194.517L232.168 142.521L232.409 141.916Z" fill="#6C63FF"/>
<path d="M218.229 170.639L218.46 170.027L275.407 226.397C275.867 224.33 276.303 222.275 276.715 220.232L220.96 163.46L221.195 162.85C220.151 165.362 219.162 167.959 218.229 170.639Z" fill="#6C63FF"/>
<path d="M314.132 214.891L314.231 215.523C315.153 208.206 315.58 200.835 315.509 193.46L275.973 227.574C274.521 234.051 272.903 240.283 271.119 246.269L314.132 214.891Z" fill="#6C63FF"/>
<path d="M257.971 280.062C251.659 292.657 244.307 303.419 235.986 312.223C245.489 307.745 283.691 288.228 302.223 255.902L257.971 280.062Z" fill="#6C63FF"/>
<path d="M211.805 201.351C211.429 208.426 211.528 215.518 212.101 222.58L212.391 221.927L257.757 278.459C261.223 271.378 264.261 264.095 266.855 256.65L211.805 201.351Z" fill="#6C63FF"/>
<path d="M283.832 159.619C284.867 136.309 283.82 120.167 283.805 119.935L284.196 119.75C274.426 114.807 263.987 115.593 254.086 121.046L283.832 159.619Z" fill="#6C63FF"/>
<path d="M267.867 256.39C267.623 257.096 267.38 257.807 267.131 258.505C264.748 265.205 262.003 271.77 258.906 278.172L302.738 254.241L302.797 254.878C306.012 249.16 308.49 243.057 310.171 236.716C310.82 234.221 311.408 231.721 311.934 229.216L267.867 256.39Z" fill="#6C63FF"/>
<path d="M281.09 192.994C282.471 181.692 283.289 170.952 283.751 161.355L253.323 121.897L253.587 121.32C246.154 125.539 239.039 132.391 232.754 141.421L281.09 192.994Z" fill="#6C63FF"/>
<path d="M257.201 279.581L212.168 223.463C215.59 265.808 232.648 310.236 233.746 313.06C243.248 303.522 250.953 292.021 257.201 279.581Z" fill="#6C63FF"/>
<path d="M267.267 255.369L267.309 255.343C270.397 246.301 272.996 237.099 275.094 227.778L218.007 171.268C216.759 174.905 215.623 178.684 214.598 182.606C213.18 188.228 212.278 193.968 211.902 199.754L267.267 255.369Z" fill="#6C63FF"/>
<path d="M126.44 169.214L136.843 196.671C144.793 202.266 153.527 208.786 162.43 216.092L149.443 173.265L150.005 173.411C141.589 170.752 133.432 169.275 125.891 169.107L126.44 169.214Z" fill="#6C63FF"/>
<path d="M135.446 195.692L125.369 169.095C116.921 168.973 109.262 170.511 102.908 173.906C102.578 174.083 102.256 174.267 101.936 174.452C104.247 175.733 117.763 183.346 135.446 195.692Z" fill="#6C63FF"/>
<path d="M207.667 209.011L208.255 209.294C205.285 206.426 202.236 203.691 199.107 201.087L202.614 254.662L202.341 254.543C203.956 256.419 205.521 258.294 207.037 260.169L207.667 209.011Z" fill="#6C63FF"/>
<path d="M179.364 187.104L179.948 187.324C170.738 181.607 160.883 177.001 150.59 173.601L163.824 217.244C172.137 224.13 179.833 231.072 186.911 238.071L179.364 187.104Z" fill="#6C63FF"/>
<path d="M92.5312 230.294C95.6133 237.373 99.4028 244.123 103.842 250.441L181.355 233.801C175.093 227.853 168.85 222.393 162.92 217.495L92.9136 230.822L92.5312 230.294Z" fill="#6C63FF"/>
<path d="M109.202 257.648L108.808 257.125L186.907 239.202C185.407 237.706 183.904 236.237 182.399 234.796L104.6 251.497L104.211 250.972C105.774 253.199 107.437 255.425 109.202 257.648Z" fill="#6C63FF"/>
<path d="M197.919 200.333L198.506 200.587C192.819 195.892 186.822 191.585 180.555 187.697L188.204 239.354C192.897 244.048 197.295 248.75 201.397 253.461L197.919 200.333Z" fill="#6C63FF"/>
<path d="M222.9 282.657C230.16 294.731 235.314 306.702 238.296 318.443C239.601 308.019 243.566 265.304 226.183 232.347L222.9 282.657Z" fill="#6C63FF"/>
<path d="M131.703 279.514C137.478 283.618 143.521 287.332 149.792 290.628L149.397 290.034L221.432 281.979C217.306 275.261 212.781 268.796 207.881 262.619L131.703 279.514Z" fill="#6C63FF"/>
<path d="M135.012 196.337C115.877 182.984 101.683 175.227 101.479 175.117L101.532 174.687C92.1266 180.293 87.2025 189.531 86.5078 200.813L135.012 196.337Z" fill="#6C63FF"/>
<path d="M208.203 261.627C208.669 262.211 209.139 262.796 209.596 263.381C213.979 268.98 218.055 274.814 221.804 280.856L225.056 231.023L225.625 231.314C222.516 225.537 218.688 220.177 214.232 215.363C212.473 213.479 210.675 211.644 208.841 209.859L208.203 261.627Z" fill="#6C63FF"/>
<path d="M161.734 216.52C152.927 209.303 144.294 202.863 136.435 197.335L86.8185 201.913L86.4722 201.381C86.0564 209.918 88.0354 219.596 92.2982 229.738L161.734 216.52Z" fill="#6C63FF"/>
<path d="M222.082 283.049L150.574 291.045C188.173 310.823 234.83 320.198 237.803 320.783C234.834 307.65 229.245 294.986 222.082 283.049Z" fill="#6C63FF"/>
<path d="M207.021 261.586L207.021 261.537C201.037 254.088 194.656 246.966 187.906 240.203L109.615 258.171C112.019 261.172 114.603 264.155 117.367 267.12C121.356 271.327 125.721 275.162 130.407 278.577L207.021 261.586Z" fill="#6C63FF"/>
<path d="M550.568 337C550.568 360.735 428.468 402.791 277.851 402.791C127.234 402.791 5.13477 360.735 5.13477 337C5.13477 313.265 127.234 316.838 277.851 316.838C428.468 316.838 550.568 313.265 550.568 337Z" fill="#3F3D56"/>
<path opacity="0.1" d="M550.568 337C550.568 360.735 428.468 402.791 277.851 402.791C127.234 402.791 5.13477 360.735 5.13477 337C5.13477 313.265 127.234 316.838 277.851 316.838C428.468 316.838 550.568 313.265 550.568 337Z" fill="black"/>
<path d="M277.851 379.977C428.468 379.977 550.568 360.735 550.568 337C550.568 313.264 428.468 294.023 277.851 294.023C127.234 294.023 5.13477 313.264 5.13477 337C5.13477 360.735 127.234 379.977 277.851 379.977Z" fill="#3F3D56"/>
<path opacity="0.1" d="M325.131 292.08C325.131 317.939 289.087 309.94 244.954 309.94C200.821 309.94 165.312 317.939 165.312 292.08C165.312 266.221 201.352 260.597 245.485 260.597C289.617 260.597 325.131 266.221 325.131 292.08Z" fill="black"/>
<path d="M325.131 285.713C325.131 311.572 289.087 303.574 244.954 303.574C200.821 303.574 165.312 311.572 165.312 285.713C165.312 259.854 201.352 254.23 245.485 254.23C289.617 254.23 325.131 259.854 325.131 285.713Z" fill="#3F3D56"/>
<path d="M183.159 214.56C184.13 213.869 185.201 213.331 186.335 212.967C193.527 210.291 201.063 208.65 208.716 208.095C215.371 207.623 222.584 208.183 227.781 212.366C228.59 212.959 229.252 213.73 229.715 214.619C230.369 216.03 230.171 217.67 229.959 219.211C229.912 219.809 229.761 220.394 229.514 220.94C228.815 222.272 227.093 222.738 225.597 222.578C224.101 222.419 222.698 221.786 221.222 221.492C220.309 221.333 219.386 221.239 218.459 221.211L209.206 220.71C203.452 220.399 197.623 220.092 191.978 221.254C190.241 221.566 188.562 222.144 187.001 222.969C185.712 223.693 184.844 224.731 183.648 223.394C181.546 221.046 180.383 216.729 183.159 214.56Z" fill="#2F2E41"/>
<path d="M197.497 218.651C197.497 218.651 209.943 213.072 214.663 219.51C219.384 225.947 212.088 223.372 212.088 223.372L203.934 225.947L194.922 224.231L197.497 218.651Z" fill="#F2F2F2"/>
<path d="M198.141 214.574C198.141 214.574 199.857 222.728 198.57 224.874C197.282 227.02 205.866 230.024 205.866 230.024L214.02 226.591C214.02 226.591 211.874 213.287 214.02 210.712L198.141 214.574Z" fill="#FFB9B9"/>
<path opacity="0.1" d="M198.141 214.574C198.141 214.574 199.857 222.728 198.57 224.874C197.282 227.02 205.866 230.024 205.866 230.024L214.02 226.591C214.02 226.591 211.874 213.287 214.02 210.712L198.141 214.574Z" fill="black"/>
<path d="M190.097 312.622C191.251 315.015 192.2 317.501 192.933 320.054C192.945 320.139 192.975 320.22 193.021 320.292C193.066 320.364 193.126 320.425 193.197 320.472C193.268 320.52 193.348 320.551 193.432 320.565C193.516 320.579 193.602 320.575 193.685 320.554L201.318 320.546C202.26 320.544 203.524 320.242 203.514 319.3C203.507 318.638 202.831 318.225 202.327 317.796C200.93 316.603 200.566 314.637 199.987 312.894C198.863 309.535 196.695 306.624 193.8 304.583C193.408 304.277 192.958 304.054 192.477 303.929C191.993 303.859 191.5 303.886 191.027 304.008C189.687 304.278 184.682 305.203 185.628 307.152C186.035 307.992 187.543 308.865 188.176 309.649C188.913 310.574 189.556 311.57 190.097 312.622Z" fill="#575A89"/>
<path d="M216.644 303.769C216.375 304.334 216.075 304.885 215.746 305.418C214.64 307.242 213.335 308.944 212.305 310.812C211.611 311.953 211.183 313.236 211.051 314.565C210.993 315.23 211.094 315.899 211.348 316.516C211.601 317.133 211.999 317.68 212.508 318.112C213.616 318.953 215.136 318.992 216.513 318.796C217.89 318.6 219.259 318.205 220.646 318.309C220.179 315.662 222.411 313.333 222.969 310.704C223.126 309.966 223.149 309.2 223.359 308.475C223.585 307.812 223.875 307.172 224.223 306.565C225.335 304.4 226.12 302.083 226.555 299.689C226.607 299.399 219.769 299.351 219.127 299.49C217.126 299.923 217.418 302.109 216.644 303.769Z" fill="#575A89"/>
<path d="M163.938 262.19C161.986 265.244 162.435 269.293 163.806 272.649C165.178 276.005 167.36 278.972 168.853 282.275C169.805 284.382 170.473 286.615 171.545 288.662C172.873 291.197 174.812 293.432 175.703 296.152C176.27 297.886 176.401 299.786 177.321 301.361C177.877 302.203 178.511 302.991 179.216 303.713C181.198 305.983 182.685 308.641 183.585 311.517C184.426 309.012 186.944 307.369 189.53 306.828C192.116 306.286 194.795 306.654 197.411 307.024C195.952 304.763 194.478 302.473 193.609 299.927C192.767 297.464 192.519 294.844 191.952 292.304C190.79 287.095 188.307 282.291 185.849 277.553L198.483 276.551C200.545 276.344 202.618 276.267 204.689 276.321C207.95 276.475 211.145 277.274 214.388 277.643C217.632 278.013 221.063 277.916 223.953 276.399C218.426 284.329 215.548 293.804 215.729 303.469C216.965 302.512 218.398 301.843 219.925 301.511C221.453 301.18 223.035 301.194 224.556 301.553C226.077 301.912 227.498 302.607 228.716 303.586C229.934 304.565 230.917 305.804 231.594 307.213C236.545 300.447 235.957 291.029 239.88 283.62C240.686 282.096 241.675 280.677 242.546 279.189C244.191 276.201 245.599 273.089 246.758 269.881C247.855 267.074 248.961 263.951 247.908 261.127C247.471 260.056 246.835 259.077 246.033 258.243C243.769 255.748 240.619 253.902 237.25 253.825C232.08 253.707 227.809 257.539 223.273 260.025C217.858 262.902 211.734 264.173 205.621 263.685C199.391 263.244 193.441 261.205 187.505 259.409C184.535 258.468 181.517 257.69 178.464 257.076C175.918 256.599 173.494 257.128 170.985 257.779C168.254 258.487 165.51 259.73 163.938 262.19Z" fill="#2F2E41"/>
<path d="M217.882 206.42C217.879 209.834 216.521 213.107 214.108 215.521C211.694 217.935 208.42 219.292 205.007 219.295C204.24 219.297 203.474 219.228 202.719 219.089C200.31 218.654 198.074 217.541 196.275 215.88C194.476 214.22 193.188 212.08 192.561 209.713C191.935 207.346 191.996 204.85 192.739 202.517C193.481 200.183 194.873 198.11 196.752 196.54C198.631 194.97 200.919 193.969 203.347 193.653C205.775 193.337 208.243 193.72 210.461 194.757C212.679 195.795 214.555 197.443 215.869 199.508C217.184 201.574 217.882 203.972 217.882 206.42Z" fill="#FFB9B9"/>
<path d="M197.497 218.651C197.497 218.651 199.857 219.724 200.715 220.583C201.574 221.441 204.149 226.162 208.44 223.158C212.732 220.153 213.161 218.437 214.449 218.437C215.736 218.437 217.453 221.012 217.453 221.012L229.255 256.418C226.074 260.008 222.387 263.117 218.311 265.645C211.445 269.937 203.29 272.082 199.428 270.366C195.565 268.649 188.27 267.362 186.982 263.928C185.695 260.495 183.549 250.195 183.549 250.195L189.557 224.016L197.497 218.651Z" fill="#F2F2F2"/>
<path d="M195.84 254.46C196.776 252.439 196.912 250.152 196.991 247.926C197.117 245.721 197.059 243.51 196.817 241.316C196.436 238.445 195.501 235.679 194.911 232.844C194.394 230.358 194.142 227.823 194.161 225.284C194.169 224.125 194.253 222.905 194.885 221.933C195.325 221.255 196.014 220.73 196.289 219.97C196.829 218.479 195.496 216.919 194.034 216.305C192.254 215.637 190.306 215.559 188.478 216.082C186.665 216.606 184.913 217.322 183.253 218.22C181.997 218.755 180.842 219.502 179.838 220.427C178.506 221.805 177.92 223.725 177.447 225.583C177.069 227.07 176.732 228.621 177.02 230.128C177.488 232.575 179.483 234.416 180.547 236.669C181.782 239.285 181.699 242.334 181.207 245.186C180.716 248.037 179.844 250.825 179.575 253.706C179.306 256.587 179.719 259.683 181.524 261.945C182.259 262.866 184.255 265.05 185.601 264.803C186.659 264.609 188.192 262.28 189.045 261.542C191.506 259.41 194.427 257.513 195.84 254.46Z" fill="#2F2E41"/>
<path d="M218.324 217.252C218.362 219.645 217.307 221.921 216.066 223.968C214.825 226.015 213.368 227.951 212.453 230.164C211.317 232.933 211.085 235.991 211.791 238.9C212.053 239.891 212.369 240.867 212.737 241.823L215.089 248.273C215.405 249.287 215.864 250.251 216.452 251.136C216.984 251.813 217.608 252.413 218.305 252.918C220.091 254.361 222.147 255.433 224.352 256.073C226.572 256.708 228.941 256.572 231.075 255.689C231.302 246.945 232.706 238.272 235.251 229.904C235.721 228.359 236.235 226.733 235.872 225.16C235.466 223.397 234.05 222.074 232.705 220.865C228.589 217.17 224.063 213.288 218.555 212.789C215.366 212.501 218.297 215.521 218.324 217.252Z" fill="#2F2E41"/>
<path d="M190.161 267.148C190.487 267.787 190.69 268.483 191.013 269.124C191.489 269.983 192.078 270.775 192.764 271.479C195.634 274.661 199.141 277.83 203.421 278.022C203.847 278.062 204.276 278.008 204.678 277.864C205.04 277.679 205.351 277.408 205.584 277.075C205.817 276.741 205.965 276.356 206.014 275.953C206.318 274.291 205.584 272.632 204.85 271.111C203.258 267.813 201.466 264.432 198.485 262.306C196.997 261.286 195.297 260.616 193.512 260.348C191.728 260.079 189.906 260.219 188.183 260.756C186.631 261.234 184.056 262.069 186.112 263.486C187.671 264.561 189.256 265.379 190.161 267.148Z" fill="#FFB9B9"/>
<path d="M208.664 225.167C208.217 223.96 207.532 222.856 206.65 221.92C205.76 221.167 204.707 220.634 203.573 220.361C202.105 219.942 200.587 219.724 199.06 219.714C197.243 219.703 195.135 220.19 194.363 221.836C193.751 223.143 194.226 224.69 194.843 225.995C195.106 226.671 195.546 227.264 196.115 227.713C196.899 228.243 197.913 228.226 198.842 228.404C200.282 228.769 201.647 229.388 202.872 230.23L206.055 232.154L211.523 235.459C211.379 235.372 211.43 231.622 211.262 231.008C210.721 229.028 209.503 227.042 208.664 225.167Z" fill="#FFB9B9"/>
<path d="M192.735 319.083C191.456 320.821 191.712 323.307 190.579 325.144C189.596 326.737 187.745 327.572 186.516 328.983C186.124 329.452 185.775 329.954 185.472 330.485C184.332 332.395 183.405 334.842 184.528 336.761C185.431 338.306 187.329 338.909 189.07 339.32C191.271 339.84 193.557 340.256 195.783 339.859C198.009 339.462 200.184 338.099 200.978 335.982C201.134 335.449 201.319 334.926 201.533 334.414C202.74 332.039 206.524 332.014 207.758 329.653C208.622 328.001 207.828 326.004 207.034 324.318L204.609 319.166C203.805 317.456 200.542 318.439 198.842 318.03C196.624 317.495 194.331 316.907 192.735 319.083Z" fill="#2F2E41"/>
<path d="M211.491 314.657C210.498 315.439 209.739 316.479 209.297 317.663C208.097 320.431 207.684 323.467 207.284 326.458C207.056 327.647 207.033 328.867 207.215 330.065C207.732 332.507 209.945 334.306 212.328 335.053C214.71 335.8 217.266 335.685 219.76 335.563C220.564 335.583 221.363 335.421 222.096 335.088C223.349 334.397 223.839 332.773 223.624 331.358C223.409 329.943 222.636 328.684 221.879 327.469C221.122 326.254 220.349 324.996 220.132 323.581C219.767 321.201 220.796 317.708 219.334 315.555C217.869 313.398 213.446 313.287 211.491 314.657Z" fill="#2F2E41"/>
<path d="M217.558 199.711C217.329 198.941 216.825 198.282 216.141 197.86C216.176 197.036 216.075 196.211 215.842 195.419C215.062 193.114 213.215 193.246 211.472 192.227C210.716 191.785 210.763 191.394 210.369 190.668C209.853 189.716 209.081 188.927 208.139 188.393C207.021 187.68 205.841 186.947 204.518 186.857C201.739 186.667 199.608 189.282 196.951 190.121C195.78 190.49 194.521 190.506 193.344 190.855C192.167 191.205 190.993 192.04 190.817 193.255C190.736 193.816 190.879 194.392 190.797 194.953C190.633 196.068 189.655 196.849 189 197.766C187.552 199.794 187.718 202.659 188.876 204.865C189.12 205.322 189.399 205.759 189.711 206.172C189.808 207.215 190.107 208.229 190.593 209.157C191.751 211.363 193.743 213.012 195.825 214.382C195.655 213.65 195.551 212.904 195.516 212.154C195.487 211.904 195.519 211.65 195.611 211.416C195.843 210.931 196.455 210.802 196.922 210.537C197.89 209.987 198.269 208.771 198.297 207.658C198.325 206.546 198.089 205.432 198.206 204.325C198.21 204.071 198.268 203.82 198.376 203.59C198.483 203.359 198.638 203.153 198.829 202.986C199.186 202.782 199.594 202.685 200.005 202.706C201.987 202.625 204.058 202.588 205.806 201.651C206.37 201.277 206.976 200.97 207.611 200.738C209.097 200.35 210.616 201.392 211.472 202.666C212.328 203.941 212.755 205.457 213.545 206.774C214.335 208.09 215.7 209.264 217.227 209.108C217.313 209.109 217.398 209.091 217.477 209.056C217.556 209.021 217.626 208.97 217.684 208.906C217.749 208.787 217.779 208.652 217.768 208.517L217.853 202.678C217.924 201.679 217.824 200.676 217.558 199.711Z" fill="#2F2E41"/>
<path d="M176.814 230.252C175.585 232.064 174.169 233.807 173.494 235.89C173.097 237.114 172.973 238.408 172.686 239.662C171.729 243.84 168.964 247.551 168.686 251.828C168.589 252.778 168.729 253.738 169.093 254.621C169.886 256.347 171.784 257.256 173.594 257.828C175.405 258.4 177.35 258.812 178.795 260.043C179.522 260.741 180.182 261.506 180.765 262.328C183.123 265.26 186.295 267.431 189.883 268.566C189.599 266.613 189.466 264.259 191.027 263.052C191.872 262.399 193.002 262.283 194.066 262.191L199.094 261.756C195.741 258.504 192.045 255.625 188.071 253.169C186.681 252.31 185.167 251.404 184.533 249.898C184.205 248.928 184.068 247.903 184.132 246.88C184.097 243.141 183.78 239.409 183.184 235.717C182.77 233.153 182.222 230.612 181.595 228.092C181.419 227.385 180.379 224.212 179.099 224.954C178.797 225.129 178.515 227.142 178.339 227.56C177.92 228.505 177.409 229.407 176.814 230.252Z" fill="#2F2E41"/>
<path d="M234.729 223.404L236.782 227.674C237.772 229.43 238.222 231.439 238.077 233.449L238.199 246.26C238.294 247.971 238.152 249.688 237.778 251.361C237.65 251.912 237.409 252.431 237.07 252.884C236.721 253.275 236.311 253.605 235.855 253.863C231.969 256.291 226.929 257.671 222.823 255.636C221.883 255.135 220.989 254.551 220.151 253.892C218.515 252.68 216.854 251.445 215.63 249.817C214.349 248.114 213.614 246.075 212.752 244.126C211.205 240.63 209.206 237.351 206.807 234.375C206.409 233.981 206.151 233.469 206.071 232.915C206.045 231.792 207.377 231.24 208.416 230.812C210.191 230.082 211.864 228.674 212.161 226.778C215.935 231.727 220.099 236.956 226.054 238.764C226.148 238.824 226.256 238.857 226.366 238.861C226.477 238.864 226.587 238.837 226.684 238.784C226.78 238.73 226.861 238.651 226.917 238.555C226.972 238.459 227.001 238.35 227 238.239C227.337 236.825 227.457 235.368 227.704 233.935C228.158 231.326 229.031 228.807 230.29 226.477C230.996 225.171 233.279 220.389 234.729 223.404Z" fill="#2F2E41"/>
<path opacity="0.1" d="M183.772 235.754C183.828 238.785 183.184 241.789 181.89 244.531C181.553 245.137 181.305 245.788 181.153 246.465C180.928 247.907 181.749 249.304 182.687 250.423C184.539 252.623 186.94 254.294 189.647 255.265" fill="black"/>
<path opacity="0.1" d="M228.363 233.199C228.06 234.012 228.335 234.912 228.568 235.748C229.244 238.174 229.56 240.685 229.505 243.202C229.514 243.246 229.513 243.292 229.501 243.336C229.488 243.379 229.466 243.419 229.434 243.451C229.403 243.483 229.363 243.507 229.32 243.52C229.277 243.534 229.232 243.536 229.187 243.528C228.197 243.588 227.063 243.595 226.391 242.864" fill="black"/>
<path opacity="0.1" d="M396.7 354.509C433.622 354.509 463.553 348.095 463.553 340.183C463.553 332.272 433.622 325.858 396.7 325.858C359.779 325.858 329.848 332.272 329.848 340.183C329.848 348.095 359.779 354.509 396.7 354.509Z" fill="black"/>
<path d="M430.125 212.314L425.35 217.089L430.125 221.865L434.9 212.314H430.125Z" fill="#A0616A"/>
<path d="M431.201 170.908C432.541 171.456 433.178 172.956 433.683 174.313L439.878 190.958L441.083 194.197C441.675 195.786 442.266 197.376 442.766 198.996C443.083 200.021 443.362 201.056 443.604 202.101C443.855 202.996 443.952 203.927 443.889 204.855C443.722 205.875 443.35 206.851 442.795 207.723C440.64 211.476 437.57 214.624 433.873 216.874C433.659 215.497 433.105 214.197 432.259 213.09C431.413 211.984 430.303 211.107 429.031 210.541L432.234 208.779C432.911 208.461 433.521 208.015 434.029 207.465C434.339 207.035 434.559 206.548 434.677 206.032C434.795 205.516 434.807 204.981 434.714 204.46C434.522 203.42 434.202 202.407 433.763 201.445C432.689 198.763 431.756 196.026 430.969 193.246C430.504 191.601 430.077 189.911 429.155 188.472C428.318 187.166 427.107 186.122 426.347 184.771C425.189 182.711 425.219 180.175 425.73 177.868C426.162 175.92 426.886 174.046 427.495 172.149C427.974 170.659 429.766 170.321 431.201 170.908Z" fill="#D0CDE1"/>
<path d="M401.667 126.437C399.204 127.269 396.973 129.214 396.468 131.764C396.234 132.947 396.378 134.176 396.181 135.365C395.725 138.122 393.56 140.228 391.564 142.184C389.568 144.14 387.506 146.413 387.36 149.204C387.201 152.26 389.417 155.123 389.034 158.16C388.588 161.687 384.862 163.973 383.941 167.407C383.326 169.7 384.08 172.171 385.32 174.195C387.683 178.054 391.721 180.673 396.022 182.078C400.323 183.482 404.904 183.777 409.428 183.825C414.937 183.882 420.918 183.409 425.056 179.774C427.421 177.678 428.905 174.767 429.213 171.623C429.606 167.411 427.849 163.06 429.061 159.008C429.824 156.458 431.737 154.129 431.452 151.482C431.173 148.894 428.913 147.06 427.362 144.97C425.915 143.018 425.036 140.713 424.175 138.44L421.23 130.665C420.65 129.136 420.015 127.529 418.724 126.526C416.308 124.648 412.424 125.017 409.599 125.404C406.978 125.763 404.187 125.586 401.667 126.437Z" fill="#2F2E41"/>
<path d="M403.945 152.061C403.945 152.061 404.233 160.711 403.368 161.576C402.503 162.441 406.828 168.207 406.828 168.207L414.613 167.919L418.649 164.747L415.19 160.134C415.19 160.134 413.748 152.638 414.901 150.908C416.054 149.178 403.945 152.061 403.945 152.061Z" fill="#A0616A"/>
<path opacity="0.1" d="M403.945 152.061C403.945 152.061 404.233 160.711 403.368 161.576C402.503 162.441 406.828 168.207 406.828 168.207L414.613 167.919L418.649 164.747L415.19 160.134C415.19 160.134 413.748 152.638 414.901 150.908C416.054 149.178 403.945 152.061 403.945 152.061Z" fill="black"/>
<path d="M385.926 218.808L390.827 229.764L394.576 225.151L387.079 215.348L385.926 218.808Z" fill="#A0616A"/>
<path d="M372.808 328.515L370.79 339.76L367.33 344.661L369.348 345.814L372.808 345.237L376.845 343.796L378.575 337.165L381.746 328.515H372.808Z" fill="#A0616A"/>
<path d="M409.712 321.595L408.559 337.741L411.442 340.048L416.055 336.011V324.19L409.712 321.595Z" fill="#A0616A"/>
<path d="M408.704 155.377C414.436 155.377 419.083 150.73 419.083 144.997C419.083 139.265 414.436 134.618 408.704 134.618C402.971 134.618 398.324 139.265 398.324 144.997C398.324 150.73 402.971 155.377 408.704 155.377Z" fill="#A0616A"/>
<path d="M416.713 158.958C416.402 158.808 416.062 158.727 415.717 158.721C415.372 158.714 415.03 158.782 414.713 158.92C414.084 159.198 413.472 159.517 412.883 159.873C411.368 160.662 409.651 160.974 407.955 160.77C407.756 160.755 407.561 160.704 407.379 160.621C407.187 160.502 407.009 160.359 406.852 160.195C406.237 159.696 405.452 159.455 404.663 159.523C403.874 159.591 403.142 159.963 402.622 160.56C402.317 160.94 402.109 161.393 401.776 161.749C400.914 162.67 399.493 162.708 398.231 162.706C395.616 162.633 393.001 162.872 390.443 163.419C387.873 163.974 385.506 165.228 383.604 167.043C383.084 167.532 382.671 168.121 382.389 168.776C382.041 169.673 382.086 170.68 381.774 171.59C381.426 172.604 380.654 173.435 380.342 174.46C380.107 175.232 380.14 176.092 379.746 176.797C381.431 178.255 382.859 180.2 384.543 181.658C385.659 182.624 386.827 183.668 387.247 185.083C387.435 185.955 387.519 186.847 387.496 187.739C387.704 192.004 390.017 195.873 392.604 199.27C393.313 200.278 394.162 201.179 395.125 201.948C396.432 202.838 397.917 203.434 399.477 203.696C402.422 204.298 405.454 204.295 408.46 204.265C411.567 204.234 414.729 204.168 417.682 203.203C419.185 202.783 420.538 201.944 421.58 200.782C422.795 199.29 423.269 197.132 424.926 196.155C425.328 195.971 425.708 195.744 426.06 195.478C426.397 195.111 426.636 194.666 426.754 194.182C427.334 192.371 427.653 190.487 427.703 188.586C427.661 187.445 427.738 186.303 427.934 185.179C428.221 184.188 428.638 183.24 429.176 182.359L432.61 176.13C432.889 175.624 432.817 174.879 432.842 174.302C432.817 173.469 432.561 172.66 432.104 171.963C429.876 168.026 426.377 164.963 422.179 163.276C421.849 163.163 421.533 163.009 421.242 162.817C420.898 162.528 420.608 162.181 420.384 161.793C419.472 160.419 418.359 158.872 416.713 158.958Z" fill="#D0CDE1"/>
<path d="M373.909 192.881C373.231 194.528 372.734 196.243 372.425 197.996C372.094 200.419 372.484 202.885 373.548 205.087C375.399 208.897 379.043 211.481 381.615 214.846C384.004 217.973 385.427 221.721 387.497 225.069C387.136 224.217 387.574 223.23 388.165 222.518C388.755 221.805 389.51 221.214 389.943 220.396C390.238 219.763 390.423 219.084 390.491 218.389C390.8 216.313 390.966 214.058 389.908 212.246C389.111 210.881 387.736 209.975 386.646 208.832C385.557 207.668 384.756 206.264 384.308 204.734C383.861 203.204 383.779 201.59 384.07 200.022C384.279 198.943 384.665 197.907 384.954 196.847C385.311 195.421 385.582 193.975 385.764 192.517L387.063 183.599C387.408 181.227 387.7 178.602 386.357 176.617C386.095 176.202 385.732 175.859 385.303 175.62C384.948 175.458 384.569 175.351 384.181 175.304C382.769 175.074 380.854 174.455 380.165 175.969C379.332 177.796 378.752 179.788 378.055 181.673L373.909 192.881Z" fill="#D0CDE1"/>
<path d="M423.393 197.76C423.393 197.76 406.253 201.076 402.217 201.076H395.009C395.009 201.076 392.414 205.689 392.414 210.302C392.414 214.916 375.403 279.5 375.403 279.5C375.403 279.5 359.256 332.551 377.133 332.84C395.009 333.128 406.253 333.993 406.541 327.938C406.83 321.884 408.56 243.748 408.56 243.748L411.251 283.925C411.974 293.871 411.202 303.87 408.959 313.587C407.669 319.035 407.869 325.007 414.326 326.208C426.724 328.515 442.294 326.497 442.294 322.172C442.294 317.847 434.221 221.835 434.221 221.835C434.221 221.835 430.184 207.708 427.877 206.554C425.571 205.401 423.393 197.76 423.393 197.76Z" fill="#2F2E41"/>
<path d="M369.636 344.084L375.979 341.778L380.304 330.822L384.917 330.245C384.917 330.245 382.322 335.723 380.881 336.588C379.439 337.453 377.132 344.661 377.132 344.661C377.132 344.661 378.286 347.544 372.808 348.698C367.329 349.851 363.293 350.716 363.293 350.716C363.293 350.716 362.716 349.563 365.311 346.679C367.906 343.796 370.936 338.942 370.936 338.942L369.636 344.084Z" fill="#2F2E41"/>
<path d="M408.56 330.822L407.406 339.471C407.406 339.471 410.578 344.084 411.443 344.084C412.308 344.084 416.921 340.048 416.921 340.048C416.921 340.048 416.633 335.723 416.921 334.57C417.209 333.416 417.786 327.938 416.921 327.65C416.056 327.362 416.056 334.076 416.056 334.076L412.308 338.03L408.694 335.863L408.56 330.822Z" fill="#2F2E41"/>
<path d="M409.569 144.997C415.779 144.997 420.813 142.287 420.813 138.943C420.813 135.599 415.779 132.888 409.569 132.888C403.359 132.888 398.324 135.599 398.324 138.943C398.324 142.287 403.359 144.997 409.569 144.997Z" fill="#2F2E41"/>
<path d="M0.566406 257.763C0.566406 291.728 21.8746 319.213 48.2073 319.213L0.566406 257.763Z" fill="#3F3D56"/>
<path d="M48.207 319.213C48.207 284.866 71.9857 257.073 101.372 257.073L48.207 319.213Z" fill="#6C63FF"/>
<path d="M17.8281 260.842C17.8281 293.106 31.4159 319.213 48.2078 319.213L17.8281 260.842Z" fill="#6C63FF"/>
<path d="M48.207 319.213C48.207 275.325 75.6914 239.811 109.657 239.811L48.207 319.213Z" fill="#3F3D56"/>
<path d="M38.1855 319.646C38.1855 319.646 44.9418 319.438 46.978 317.988C49.0142 316.538 57.3708 314.807 57.876 317.132C58.3811 319.458 68.0294 328.698 60.4016 328.759C52.7738 328.821 42.678 327.571 40.6457 326.333C38.6135 325.095 38.1855 319.646 38.1855 319.646Z" fill="#A8A8A8"/>
<path opacity="0.2" d="M60.5377 327.949C52.9099 328.011 42.8141 326.761 40.7819 325.523C39.2342 324.581 38.6175 321.198 38.4111 319.637C38.2682 319.643 38.1855 319.646 38.1855 319.646C38.1855 319.646 38.6135 325.095 40.6457 326.333C42.678 327.571 52.7738 328.821 60.4016 328.759C62.6034 328.741 63.364 327.958 63.3222 326.798C63.0163 327.499 62.1765 327.936 60.5377 327.949Z" fill="black"/>
</g>
<defs>
<clipPath id="clip0_631_458">
<rect width="550" height="402.178" fill="white" transform="translate(0.566406 0.613586)"/>
</clipPath>
</defs>
</svg>