<svg width="61" height="63" viewBox="0 0 61 63" fill="none" xmlns="http://www.w3.org/2000/svg">
<path d="M41.796 16.9536H19.5738C18.9846 16.9543 18.4198 17.1887 18.0032 17.6053C17.5866 18.0219 17.3522 18.5867 17.3516 19.1759V27.324C17.3516 39.7478 27.883 43.869 29.9941 44.569C30.4421 44.721 30.9278 44.721 31.3758 44.569C33.487 43.8691 44.0182 39.7478 44.0182 27.324V19.1759C44.0176 18.5867 43.7832 18.0219 43.3666 17.6053C42.95 17.1887 42.3852 16.9543 41.796 16.9536ZM41.796 27.324C41.796 38.1935 32.5797 41.8258 30.6846 42.4568C28.8073 41.8325 19.5738 38.2035 19.5738 27.324V19.1759H41.796L41.796 27.324ZM23.8066 30.5352C23.7011 30.4344 23.6164 30.3139 23.5574 30.1804C23.4985 30.047 23.4664 29.9032 23.463 29.7573C23.4596 29.6114 23.4849 29.4663 23.5376 29.3303C23.5903 29.1942 23.6693 29.0698 23.77 28.9643C23.8708 28.8587 23.9913 28.774 24.1248 28.7151C24.2582 28.6561 24.402 28.624 24.5479 28.6206C24.6938 28.6172 24.8389 28.6426 24.975 28.6953C25.111 28.7479 25.2354 28.8269 25.3409 28.9277L28.648 32.0843L36.0289 25.0388C36.1344 24.9381 36.2588 24.8591 36.3948 24.8064C36.5309 24.7538 36.676 24.7284 36.8219 24.7318C36.9677 24.7352 37.1115 24.7673 37.245 24.8262C37.3784 24.8852 37.499 24.9698 37.5997 25.0754C37.7005 25.1809 37.7794 25.3053 37.8321 25.4413C37.8848 25.5774 37.9102 25.7225 37.9068 25.8684C37.9034 26.0142 37.8713 26.158 37.8123 26.2915C37.7534 26.4249 37.6687 26.5455 37.5632 26.6462L29.4151 34.424C29.2084 34.6213 28.9337 34.7314 28.648 34.7314C28.3622 34.7314 28.0875 34.6214 27.8808 34.4241L23.8066 30.5352Z" fill="#4EE870"/>
<path d="M30.736 62.6134C30.2645 62.6121 29.7963 62.5349 29.3494 62.3846C24.5715 60.8004 0.736328 51.4738 0.736328 23.3636V4.64027C0.737638 3.45571 1.20876 2.32005 2.04633 1.48241C2.88391 0.644776 4.01954 0.173575 5.20409 0.17218H56.2679C57.4525 0.173508 58.5882 0.644679 59.4259 1.48232C60.2635 2.31996 60.7347 3.45566 60.736 4.64027L60.7363 23.3636C60.7363 51.4737 36.9008 60.8004 32.1229 62.3846C31.6759 62.5349 31.2076 62.6121 30.736 62.6134ZM5.2041 4.00197C5.03491 4.00219 4.87272 4.06952 4.75311 4.18918C4.63351 4.30885 4.56626 4.47108 4.56612 4.64027V23.3636C4.56612 48.8421 26.215 57.3105 30.5549 58.7494C30.6716 58.7942 30.8007 58.7942 30.9174 58.7494C35.2574 57.3105 56.9065 48.842 56.9065 23.3636L56.9062 4.64027C56.906 4.47104 56.8387 4.30881 56.719 4.18915C56.5994 4.06949 56.4372 4.00217 56.2679 4.00197H5.2041Z" fill="#6C63FF"/>
</svg>