<svg width="71" height="71" viewBox="0 0 71 71" fill="none" xmlns="http://www.w3.org/2000/svg">
<g clip-path="url(#clip0_631_450)">
<path d="M61.3844 12.1186C54.9854 5.13113 45.7879 0.749023 35.5664 0.749023C16.2364 0.749023 0.566406 16.419 0.566406 35.749H7.12891C7.12891 20.0435 19.8608 7.31152 35.5664 7.31152C43.976 7.31152 51.5312 10.9631 56.737 16.766L50.3442 24.0824L70.5664 26.999L68.2331 5.0268L61.3844 12.1186Z" fill="#6C63FF"/>
<path d="M64.0039 35.749C64.0039 51.4546 51.272 64.1865 35.5664 64.1865C27.1568 64.1865 19.6016 60.5349 14.3959 54.732L20.7886 46.249L0.566406 44.499L2.89974 65.3046L9.74844 59.3795C16.1474 66.3669 25.3449 70.749 35.5664 70.749C54.8964 70.749 70.5664 55.079 70.5664 35.749H64.0039Z" fill="#6C63FF"/>
<g clip-path="url(#clip1_631_450)">
<path d="M49.8101 38.3011L42.1539 45.9573L39.6018 43.4053L37.9004 45.1066L42.1539 49.3601L51.5115 40.0025L49.8101 38.3011Z" fill="#4EE870"/>
<path d="M36.1988 42.5545H44.7057V39.494C42.9187 38.4519 40.5504 37.7365 37.9002 37.5198V36.1167C39.7743 35.0606 41.303 32.4276 41.303 29.7941C41.303 25.5657 41.303 22.1379 36.1988 22.1379C31.0946 22.1379 31.0946 25.5657 31.0946 29.7941C31.0946 32.4276 32.6233 35.0606 34.4974 36.1167V37.5198C28.7259 37.9916 24.2891 40.8274 24.2891 44.2559H36.1988V42.5545Z" fill="#4EE870"/>
</g>
</g>
<defs>
<clipPath id="clip0_631_450">
<rect width="70" height="70" fill="white" transform="translate(0.566406 0.749023)"/>
</clipPath>
<clipPath id="clip1_631_450">
<rect width="27.2222" height="27.2222" fill="white" transform="translate(24.2891 22.1379)"/>
</clipPath>
</defs>
</svg>