<svg width="21" height="20" viewBox="0 0 21 20" fill="none" xmlns="http://www.w3.org/2000/svg">
<path d="M10.7531 0.129639C9.19288 0.129885 7.65439 0.475541 6.26061 1.13897C4.86683 1.8024 3.65641 2.76521 2.72614 3.9504C1.79587 5.1356 1.17154 6.51032 0.903075 7.96464C0.634611 9.41896 0.729457 10.9125 1.18003 12.326C1.6306 13.7394 2.4244 15.0335 3.49797 16.1048C4.57153 17.176 5.89508 17.9947 7.36279 18.4955C8.8305 18.9962 10.4017 19.165 11.9507 18.9885C13.4996 18.8119 14.9835 18.2949 16.2836 17.4787C16.4051 17.4023 16.5095 17.3039 16.5909 17.1893C16.6722 17.0747 16.7289 16.946 16.7577 16.8106C16.7865 16.6753 16.7869 16.5359 16.7587 16.4004C16.7306 16.2649 16.6745 16.136 16.5938 16.021C16.513 15.906 16.409 15.8072 16.2879 15.7302C16.1668 15.6532 16.0308 15.5995 15.8877 15.5723C15.7447 15.545 15.5973 15.5447 15.4541 15.5713C15.311 15.598 15.1747 15.651 15.0532 15.7275C13.609 16.6342 11.8862 17.0585 10.1581 16.9333C8.43006 16.808 6.79568 16.1403 5.51432 15.036C4.23295 13.9317 3.378 12.4541 3.0851 10.8377C2.7922 9.22128 3.07814 7.55861 3.89755 6.11348C4.71696 4.66834 6.0229 3.52353 7.60817 2.86067C9.19344 2.19781 10.9672 2.05487 12.6481 2.45454C14.329 2.85421 15.8207 3.77359 16.8866 5.06681C17.9524 6.36003 18.5313 7.95301 18.5315 9.59302C18.5315 10.4069 18.3772 11.0899 18.0971 11.5163C17.8529 11.8879 17.5397 12.0465 17.0499 12.0465C16.56 12.0465 16.2469 11.8879 16.0027 11.5163C15.7226 11.0899 15.5683 10.4069 15.5683 9.59302V6.08806C15.5683 5.83572 15.4724 5.59178 15.2981 5.40079C15.1238 5.20981 14.8828 5.08451 14.6189 5.04778C14.3551 5.01106 14.0861 5.06535 13.8611 5.20074C13.636 5.33614 13.47 5.54361 13.3932 5.78527C12.6292 5.31006 11.738 5.05047 10.8239 5.03686C9.90972 5.02325 9.01037 5.25618 8.23096 5.70841C7.45155 6.16065 6.82431 6.8135 6.42256 7.59063C6.02082 8.36776 5.86117 9.23706 5.9623 10.0969C6.06343 10.9567 6.42115 11.7715 6.99363 12.4461C7.56611 13.1206 8.3297 13.627 9.19511 13.906C10.0605 14.185 10.992 14.2251 11.8806 14.0217C12.7692 13.8182 13.5783 13.3795 14.2132 12.757C14.8553 13.6504 15.8288 14.1495 17.0499 14.1495C19.3346 14.1495 20.7539 12.4036 20.7539 9.59302C20.7509 7.08404 19.6963 4.67863 17.8214 2.90452C15.9466 1.1304 13.4045 0.132463 10.7531 0.129639ZM10.7531 12.0465C10.2403 12.0465 9.73897 11.9026 9.31258 11.633C8.8862 11.3634 8.55387 10.9802 8.35763 10.5319C8.16138 10.0836 8.11004 9.59029 8.21008 9.11437C8.31013 8.63844 8.55707 8.20127 8.91968 7.85815C9.28229 7.51503 9.74428 7.28136 10.2472 7.18669C10.7502 7.09202 11.2715 7.14061 11.7453 7.32631C12.2191 7.512 12.624 7.82647 12.9089 8.22994C13.1938 8.63341 13.3459 9.10777 13.3459 9.59302C13.3451 10.2435 13.0717 10.8671 12.5856 11.3271C12.0995 11.787 11.4405 12.0458 10.7531 12.0465Z" fill="white"/>
</svg>
