<svg width="26" height="23" viewBox="0 0 26 23" fill="none" xmlns="http://www.w3.org/2000/svg">
<path d="M0.671614 5.80907L0.60542 4.33676C0.60542 3.43911 0.954123 2.57822 1.57482 1.94348C2.19552 1.30874 3.03736 0.952148 3.91516 0.952148H9.99183C10.8696 0.95234 11.7113 1.30906 12.3318 1.94384L13.702 3.34507C14.3226 3.97985 15.1643 4.33657 16.042 4.33676H22.6317C23.0916 4.33672 23.5465 4.43469 23.9674 4.62444C24.3882 4.81419 24.7657 5.09155 25.0759 5.43883C25.3861 5.78611 25.622 6.19568 25.7688 6.64142C25.9155 7.08716 25.9698 7.55929 25.9282 8.02769L24.8741 19.8738C24.7993 20.7148 24.4199 21.4968 23.8103 22.0663C23.2007 22.6359 22.4049 22.9518 21.5792 22.9521H4.45464C3.62893 22.9518 2.83315 22.6359 2.22355 22.0663C1.61394 21.4968 1.23453 20.7148 1.1598 19.8738L0.105649 8.02769C0.0351293 7.24378 0.235381 6.45938 0.671614 5.81076V5.80907ZM3.40215 6.02907C3.17226 6.02906 2.9449 6.07802 2.73454 6.17285C2.52419 6.26767 2.33546 6.40627 2.18039 6.57982C2.02532 6.75336 1.90731 6.95805 1.83388 7.18081C1.76045 7.40358 1.73321 7.63956 1.7539 7.87369L2.80805 19.7198C2.84521 20.1403 3.03471 20.5314 3.33936 20.8163C3.64401 21.1013 4.0418 21.2594 4.45464 21.2598H21.5792C21.9921 21.2594 22.3899 21.1013 22.6945 20.8163C22.9992 20.5314 23.1887 20.1403 23.2258 19.7198L24.28 7.87369C24.3007 7.63956 24.2734 7.40358 24.2 7.18081C24.1266 6.95805 24.0085 6.75336 23.8535 6.57982C23.6984 6.40627 23.5097 6.26767 23.2993 6.17285C23.089 6.07802 22.8616 6.02906 22.6317 6.02907H3.40215ZM11.1635 3.1403C11.0097 2.98294 10.827 2.85815 10.6259 2.77307C10.4249 2.68799 10.2094 2.64428 9.99183 2.64446H3.91516C3.48165 2.64438 3.06543 2.81825 2.75597 3.1287C2.44651 3.43915 2.26852 3.86138 2.26029 4.30461L2.27022 4.53984C2.62436 4.40784 3.00498 4.33676 3.40215 4.33676H12.3318L11.1618 3.1403H11.1635Z" fill="#A3A6AA"/>
</svg>
