<svg width="641" height="580" viewBox="0 0 641 580" fill="none" xmlns="http://www.w3.org/2000/svg">
<path d="M552.244 176.367L556.372 148.554L568.025 145.345C568.025 145.345 577.274 142.207 579.436 162.728C581.598 183.249 579.922 221.563 579.922 221.563L605.507 310.811C607.472 311.839 609.126 313.47 610.271 315.507C611.417 317.544 612.005 319.901 611.965 322.297C611.925 324.692 611.26 327.025 610.048 329.015C608.836 331.004 607.129 332.567 605.132 333.516C603.135 334.465 600.932 334.76 598.786 334.365C596.641 333.971 594.644 332.903 593.035 331.291C591.426 329.679 590.273 327.59 589.713 325.274C589.154 322.959 589.213 320.515 589.882 318.235L556.614 234.4L552.244 176.367Z" fill="#FFB7B7"/>
<path d="M481.38 154.48L487.498 127.115L477.924 119.124C477.924 119.124 470.537 112.238 461.234 130.176C451.931 148.114 439.815 184.076 439.815 184.076L384.472 255.091C382.298 255.187 380.196 255.971 378.417 257.349C376.637 258.727 375.256 260.641 374.439 262.861C373.621 265.082 373.402 267.515 373.807 269.869C374.212 272.223 375.225 274.398 376.723 276.135C378.222 277.872 380.143 279.096 382.257 279.661C384.371 280.226 386.588 280.107 388.643 279.321C390.697 278.534 392.502 277.111 393.842 275.223C395.181 273.336 395.999 271.063 396.196 268.676L456.675 205.962L481.38 154.48Z" fill="#FFB7B7"/>
<path d="M433.554 564.156L419.676 564.155L413.073 505.19L433.557 505.191L433.554 564.156Z" fill="#FFB7B7"/>
<path d="M437.094 559.165L409.762 559.163H409.761C405.142 559.164 400.712 561.185 397.446 564.783C394.179 568.381 392.344 573.261 392.344 578.349V578.972L437.093 578.974L437.094 559.165Z" fill="#564FCC"/>
<path d="M607.882 564.156L594.004 564.155L587.401 505.19L607.885 505.191L607.882 564.156Z" fill="#FFB7B7"/>
<path d="M611.422 559.165L584.091 559.163H584.089C579.47 559.164 575.04 561.185 571.774 564.783C568.507 568.381 566.672 573.261 566.672 578.349V578.972L611.421 578.974L611.422 559.165Z" fill="#564FCC"/>
<path d="M522.767 102.073C502.036 102.073 485.231 83.5611 485.231 60.726C485.231 37.8909 502.036 19.3794 522.767 19.3794C543.497 19.3794 560.303 37.8909 560.303 60.726C560.303 83.5611 543.497 102.073 522.767 102.073Z" fill="#564FCC"/>
<path d="M552.064 38.4332C545.999 31.7517 544.769 22.2731 549.319 17.262C553.868 12.2509 562.473 13.605 568.539 20.2864C574.604 26.9679 575.834 36.4466 571.284 41.4577C566.735 46.4687 558.13 45.1146 552.064 38.4332Z" fill="#564FCC"/>
<path d="M483.644 25.3031C481.117 18.786 485.463 10.4939 493.351 6.78204C501.24 3.07023 509.684 5.34434 512.211 11.8614C514.738 18.3785 510.392 26.6706 502.504 30.3825C494.615 34.0943 486.171 31.8201 483.644 25.3031Z" fill="#564FCC"/>
<path d="M493.623 87.4281C485.184 70.4231 490.858 49.1021 506.296 39.8064C521.733 30.5106 541.089 36.7602 549.528 53.7652C557.967 70.7702 552.294 92.0911 536.856 101.387C521.418 110.683 502.062 104.433 493.623 87.4281Z" fill="#FFB7B7"/>
<path d="M555.049 48.5249C547.769 54.0517 539.129 56.993 530.288 56.9541C533.441 59.3628 537.032 60.9898 540.811 61.7231C529.056 64.5005 516.907 64.5757 505.125 61.9439C502.506 61.4813 499.979 60.5253 497.654 59.1176C496.496 58.4051 495.487 57.432 494.692 56.2617C493.898 55.0913 493.336 53.7498 493.043 52.3246C492.26 47.3976 495.745 42.9214 499.367 39.9047C504.913 35.3564 511.307 32.2227 518.087 30.7304C524.867 29.238 531.863 29.4243 538.569 31.2758C542.948 32.5227 547.335 34.6294 550.18 38.5032C553.024 42.377 553.867 48.3491 551.157 52.3381L555.049 48.5249Z" fill="#564FCC"/>
<path d="M537.539 116.228L569.07 144.592L541.52 216.95L540.995 228.527C540.995 228.527 569.594 257.573 587.289 338.711C604.985 419.849 640.725 527.661 640.725 527.661L569.226 546.928L519.514 363.386L456.143 507.38L447.128 549.97L391.859 533.07L413.189 418.775L465.506 241.362L461.21 192.35C461.21 192.35 451.636 167.886 468.268 141.985L473.484 117.648L500.488 112.578L537.539 116.228Z" fill="#564FCC"/>
<path d="M7.3361 373.732H226.242C227.991 373.73 229.666 372.964 230.903 371.603C232.139 370.241 232.834 368.395 232.836 366.469V285.125C232.834 283.199 232.139 281.353 230.903 279.991C229.666 278.63 227.991 277.864 226.242 277.862H7.3361C5.58799 277.864 3.91205 278.63 2.67595 279.991C1.43985 281.353 0.744517 283.199 0.742517 285.125V366.469C0.744517 368.395 1.43985 370.241 2.67595 371.603C3.91205 372.964 5.58799 373.73 7.3361 373.732V373.732Z" fill="#282828"/>
<path d="M140.527 299.651H198.551V306.914H140.527V299.651Z" fill="#3D3D3D"/>
<path d="M64.04 308.366C61.8551 308.366 60.0839 306.415 60.0839 304.008C60.0839 301.602 61.8551 299.651 64.04 299.651C66.2249 299.651 67.9961 301.602 67.9961 304.008C67.9961 306.415 66.2249 308.366 64.04 308.366Z" fill="#6C63FF"/>
<path d="M50.8524 308.366C48.6675 308.366 46.8963 306.415 46.8963 304.008C46.8963 301.602 48.6675 299.651 50.8524 299.651C53.0374 299.651 54.8086 301.602 54.8086 304.008C54.8086 306.415 53.0374 308.366 50.8524 308.366Z" fill="#6C63FF"/>
<path d="M37.6649 308.366C35.48 308.366 33.7088 306.415 33.7088 304.008C33.7088 301.602 35.48 299.651 37.6649 299.651C39.8499 299.651 41.6211 301.602 41.6211 304.008C41.6211 306.415 39.8499 308.366 37.6649 308.366Z" fill="#6C63FF"/>
<path d="M7.3361 476.866H226.242C227.991 476.864 229.666 476.098 230.903 474.737C232.139 473.375 232.834 471.529 232.836 469.603V388.258C232.834 386.333 232.139 384.487 230.903 383.125C229.666 381.763 227.991 380.998 226.242 380.995H7.3361C5.58799 380.998 3.91205 381.763 2.67595 383.125C1.43985 384.487 0.744517 386.333 0.742517 388.258V469.603C0.744517 471.529 1.43985 473.375 2.67595 474.737C3.91205 476.098 5.58799 476.864 7.3361 476.866V476.866Z" fill="#282828"/>
<path d="M140.527 402.784H198.551V410.047H140.527V402.784Z" fill="#3D3D3D"/>
<path d="M64.04 411.5C61.8551 411.5 60.0839 409.549 60.0839 407.142C60.0839 404.735 61.8551 402.784 64.04 402.784C66.2249 402.784 67.9961 404.735 67.9961 407.142C67.9961 409.549 66.2249 411.5 64.04 411.5Z" fill="#6C63FF"/>
<path d="M50.8524 411.5C48.6675 411.5 46.8963 409.549 46.8963 407.142C46.8963 404.735 48.6675 402.784 50.8524 402.784C53.0374 402.784 54.8086 404.735 54.8086 407.142C54.8086 409.549 53.0374 411.5 50.8524 411.5Z" fill="#6C63FF"/>
<path d="M37.6649 411.5C35.48 411.5 33.7088 409.549 33.7088 407.142C33.7088 404.735 35.48 402.784 37.6649 402.784C39.8499 402.784 41.6211 404.735 41.6211 407.142C41.6211 409.549 39.8499 411.5 37.6649 411.5Z" fill="#6C63FF"/>
<path d="M7.3361 580H226.242C227.991 579.998 229.666 579.232 230.903 577.87C232.139 576.508 232.834 574.662 232.836 572.737V491.392C232.834 489.466 232.139 487.62 230.903 486.259C229.666 484.897 227.991 484.131 226.242 484.129H7.3361C5.58799 484.131 3.91205 484.897 2.67595 486.259C1.43985 487.62 0.744517 489.466 0.742517 491.392V572.737C0.744517 574.662 1.43985 576.508 2.67595 577.87C3.91205 579.232 5.58799 579.998 7.3361 580Z" fill="#282828"/>
<path d="M140.527 505.918H198.551V513.181H140.527V505.918Z" fill="#3D3D3D"/>
<path d="M64.04 514.633C61.8551 514.633 60.0839 512.682 60.0839 510.275C60.0839 507.869 61.8551 505.918 64.04 505.918C66.2249 505.918 67.9961 507.869 67.9961 510.275C67.9961 512.682 66.2249 514.633 64.04 514.633Z" fill="#6C63FF"/>
<path d="M50.8524 514.633C48.6675 514.633 46.8963 512.682 46.8963 510.275C46.8963 507.869 48.6675 505.918 50.8524 505.918C53.0374 505.918 54.8086 507.869 54.8086 510.275C54.8086 512.682 53.0374 514.633 50.8524 514.633Z" fill="#6C63FF"/>
<path d="M37.6649 514.633C35.48 514.633 33.7088 512.682 33.7088 510.275C33.7088 507.869 35.48 505.918 37.6649 505.918C39.8499 505.918 41.6211 507.869 41.6211 510.275C41.6211 512.682 39.8499 514.633 37.6649 514.633Z" fill="#6C63FF"/>
<path d="M270.021 404.604C274.19 404.588 278.342 403.997 282.377 402.843L283.173 402.601L283.911 402.193C310.587 387.46 333.093 368 350.803 344.353C365.463 324.663 376.892 302.307 384.577 278.291C393.768 249.537 398.189 219.198 397.631 188.72C397.619 188.081 397.61 187.587 397.61 187.246C397.61 172.431 390.144 159.432 378.59 154.129C369.747 150.07 289.459 113.745 283.658 111.12C272.733 105.09 261.078 110.123 259.213 111.003C255.029 112.887 180.807 146.327 164.768 154.74C148.237 163.41 143.827 178.987 143.827 186.824C143.827 222.303 149.405 255.461 160.407 285.378C169.292 309.593 181.885 331.948 197.638 351.469C228.03 389.143 258.43 402.499 258.723 402.617C262.357 403.994 266.179 404.666 270.021 404.604V404.604ZM277.17 385.097C274.535 385.748 268.467 386.724 264.512 385.135C259.487 383.117 234.043 368.583 210.265 339.109C177.414 298.386 160.745 247.194 160.72 186.954C160.779 185.734 161.566 177.03 172.031 171.541C187.759 163.291 264.906 128.543 265.684 128.192L265.897 128.093C267.514 127.347 272.659 125.775 276.206 127.822L276.916 128.187C277.776 128.576 363.003 167.134 372.093 171.306C378.451 174.224 380.717 181.454 380.717 187.246C380.717 187.67 380.727 188.286 380.741 189.081C381.467 230.3 372.808 331.724 277.17 385.097Z" fill="#3F3D56"/>
<path d="M280.125 119.58C280.125 119.58 366.127 158.488 375.342 162.718C384.557 166.947 389.164 177.097 389.164 187.247C389.164 197.397 396.075 329.84 280.125 393.876C280.125 393.876 269.602 397.084 261.618 393.876C253.634 390.669 152.274 336.536 152.274 186.824C152.274 186.824 152.274 171.599 168.4 163.141C184.525 154.682 262.489 119.58 262.489 119.58C262.489 119.58 272.063 114.928 280.125 119.58Z" fill="#6C63FF"/>
<path opacity="0.2" d="M270.91 150.03V357.591C270.91 357.591 184.14 311.583 184.908 190.63L270.91 150.03Z" fill="black"/>
<path d="M585.731 41.604C584.499 28.4484 578.257 27.453 575.157 28.692C571.358 19.3012 563.749 14.7501 558.244 12.99C585.953 7.14961 588.597 28.5046 586.269 41.5682C586.089 41.5523 585.908 41.5643 585.731 41.604Z" fill="#C41B1B"/>
<path d="M575.722 30.2095C575.951 30.8795 575.646 31.6082 575.024 31.9457V31.9457C574.188 32.3992 573.144 31.9714 572.789 31.0891C570.718 25.9426 565.397 17.9572 556.06 15.7265C554.981 15.4686 554.341 14.2884 554.824 13.2889V13.2889C555.126 12.6632 555.796 12.2793 556.47 12.4487C556.948 12.5687 557.452 12.7366 558.244 12.99C563.749 14.7501 571.358 19.3012 575.157 28.692C575.356 29.1844 575.544 29.6902 575.722 30.2095Z" fill="white"/>
<path d="M584.893 44.4964C584.218 43.825 584.218 42.7364 584.893 42.065C585.132 41.8269 585.424 41.6733 585.731 41.604C585.908 41.5643 586.089 41.5523 586.269 41.5682C586.659 41.6026 587.039 41.7682 587.337 42.065C588.013 42.7364 588.013 43.825 587.337 44.4964C586.662 45.1679 585.568 45.1679 584.893 44.4964Z" fill="white"/>
<path d="M470.956 32.604C472.188 19.4484 478.43 18.453 481.531 19.692C485.329 10.3012 492.939 5.75015 498.443 3.99004C470.735 -1.85039 468.09 19.5046 470.419 32.5682C470.598 32.5523 470.78 32.5643 470.956 32.604Z" fill="#C41B1B"/>
<path d="M480.966 21.2095C480.737 21.8795 481.042 22.6082 481.664 22.9457V22.9457C482.5 23.3992 483.543 22.9714 483.898 22.0891C485.97 16.9426 491.29 8.95718 500.627 6.72645C501.707 6.46857 502.346 5.28843 501.864 4.28894V4.28894C501.562 3.6632 500.891 3.27929 500.217 3.44869C499.74 3.56873 499.236 3.73658 498.443 3.99004C492.939 5.75015 485.329 10.3012 481.531 19.692C481.332 20.1844 481.143 20.6902 480.966 21.2095Z" fill="white"/>
<path d="M471.795 35.4964C472.47 34.825 472.47 33.7364 471.795 33.065C471.556 32.8269 471.263 32.6733 470.956 32.604C470.78 32.5643 470.598 32.5523 470.419 32.5682C470.029 32.6026 469.649 32.7682 469.35 33.065C468.675 33.7364 468.675 34.825 469.35 35.4964C470.025 36.1679 471.12 36.1679 471.795 35.4964Z" fill="white"/>
</svg>
