<svg width="674" height="561" viewBox="0 0 674 561" fill="none" xmlns="http://www.w3.org/2000/svg">
<path d="M35.8903 285.585L35.7142 285.338C26.3063 272.171 40.4557 240.533 42.5898 235.946C40.0557 235.124 37.8849 233.449 36.4473 231.207C35.0097 228.965 34.3942 226.294 34.7054 223.649L35.6254 215.831L36.5843 208.164L29.7145 201.296L29.6952 201.125L25.7417 166.544L19.9934 143.576C17.8276 134.894 18.0121 125.791 20.5282 117.203C23.0443 108.615 27.8013 100.852 34.3108 94.7087L47.5978 92.5996L63.7457 77.0465H89.786L98.7146 85.574C115.382 88.4962 118.246 87.5421 132.563 104.717L126.057 158.113L124.435 165.459L124.439 175.422L128.565 180.006C130.052 181.657 131.132 183.632 131.719 185.774C132.307 187.916 132.386 190.166 131.95 192.344L131.408 195.056C135.663 196.879 139.724 229.277 140.694 233.802L142.143 240.562C143.383 242.198 151.566 253.105 151.566 256.087C151.566 256.535 151.236 256.968 150.526 257.448C144.949 261.223 122.715 288.002 109.072 282.545C94.5401 276.736 36.7726 285.45 36.1905 285.538L35.8903 285.585Z" fill="#3F3D56"/>
<path d="M32.395 223.493C32.395 223.493 39.0821 185.714 32.3452 171.506L5.61956 173.414L9.68682 227.311L33.05 287.152C32.6934 288.996 32.8311 290.901 33.4493 292.674C34.0674 294.448 35.1439 296.026 36.5694 297.249C37.995 298.472 39.7188 299.296 41.566 299.637C43.4132 299.979 45.3179 299.826 47.0868 299.194C48.8557 298.562 50.4257 297.473 51.6376 296.038C52.8495 294.603 53.66 292.873 53.9869 291.024C54.3137 289.175 54.1453 287.272 53.4987 285.509C52.8521 283.746 51.7504 282.185 50.3053 280.985L32.395 223.493Z" fill="#FFB6B6"/>
<path d="M5.61626 151.469L7.2703 133.463C7.89282 126.686 9.84952 120.099 13.0278 114.081C16.2061 108.063 20.5434 102.733 25.79 98.3964C29.0499 95.7221 32.9931 94.0124 37.174 93.4607C41.3549 92.909 45.6068 93.5372 49.4493 95.2744C54.6422 97.6643 58.7335 101.936 60.896 107.226C63.0585 112.516 63.1309 118.43 61.0985 123.771C54.9216 139.965 57.152 157.091 45.1075 159.179L46.4161 165.402L34.5734 204.036L0.84375 200.13L5.61626 151.469Z" fill="#3F3D56"/>
<path d="M183.511 205.587C183.511 205.587 163.935 172.587 149.559 166.207L130.543 185.076L168.787 223.284L225.537 253.42C226.469 255.05 227.817 256.405 229.442 257.346C231.067 258.288 232.913 258.782 234.792 258.78C236.67 258.778 238.515 258.279 240.138 257.334C241.761 256.389 243.105 255.031 244.034 253.399C244.962 251.766 245.442 249.917 245.425 248.04C245.408 246.162 244.894 244.322 243.935 242.707C242.977 241.092 241.608 239.759 239.967 238.844C238.327 237.929 236.474 237.464 234.595 237.497L183.511 205.587Z" fill="#FFB6B6"/>
<path d="M116.23 168.44L105.737 153.711C101.788 148.168 98.9748 141.899 97.4583 135.265C95.9419 128.63 95.7525 121.762 96.9011 115.054C97.6278 110.902 99.5019 107.035 102.312 103.891C105.121 100.747 108.755 98.4519 112.801 97.2639C118.297 95.6905 124.185 96.262 129.276 98.8627C134.366 101.463 138.279 105.899 140.222 111.274C146.104 127.577 167.558 154.373 159.789 163.807L164.841 167.672L172.475 189.415L144.357 208.442L116.23 168.44Z" fill="#3F3D56"/>
<path d="M75.0076 69.5321C90.9795 69.5321 103.927 56.5889 103.927 40.6228C103.927 24.6566 90.9795 11.7135 75.0076 11.7135C59.0357 11.7135 46.0879 24.6566 46.0879 40.6228C46.0879 56.5889 59.0357 69.5321 75.0076 69.5321Z" fill="#FFB6B6"/>
<path d="M54.0229 61.0001C53.7705 60.7787 53.5322 60.5424 53.2855 60.315C53.2766 60.3383 53.2753 60.3622 53.2658 60.3855L54.0229 61.0001Z" fill="#2F2E41"/>
<path d="M98.7063 10.0947C97.2694 7.78241 95.2792 5.86421 92.9152 4.51317C91.2995 3.72977 89.6016 3.12841 87.8529 2.72014L83.2761 1.47186C80.9311 0.746498 78.5185 0.260884 76.0754 0.0225076C72.6828 -0.144794 69.3094 0.62309 66.3238 2.24227C63.3381 3.86145 60.855 6.26967 59.1456 9.20389C57.7628 11.6556 56.6536 14.7108 53.9849 15.6078C51.833 16.3311 49.4852 15.3108 47.2236 15.5087C45.8984 15.7007 44.6409 16.2165 43.5628 17.0104C42.4846 17.8043 41.619 18.8517 41.0426 20.06C39.9155 22.4914 39.3608 25.1488 39.421 27.8279C39.3322 33.9105 40.5197 39.9442 42.9071 45.5397C45.2945 51.1353 48.8287 56.1684 53.2817 60.3146C54.0281 58.3478 52.7987 56.2244 51.8269 54.343C50.8435 52.4393 50.2358 49.7852 51.8828 48.4141C53.7154 46.8884 56.6515 48.3679 58.8189 47.373C59.5122 46.9748 60.0962 46.4112 60.5186 45.7325C60.941 45.0538 61.1887 44.281 61.2395 43.4833C61.4493 41.9026 61.2303 40.2957 61.3296 38.7042C61.4279 37.1266 61.838 35.5841 62.536 34.1658C63.2341 32.7475 64.2063 31.4815 65.3965 30.4409C66.5867 29.4002 67.9714 28.6056 69.4705 28.1029C70.9697 27.6002 72.5536 27.3994 74.1308 27.512C79.064 27.8643 83.8516 31.2341 88.599 29.8478C90.8275 29.197 92.7281 27.5402 95.0329 27.2615C97.5854 26.9528 99.9865 28.3928 102.154 29.7755C102.941 26.4326 103.042 22.9646 102.449 19.5816C101.857 16.1987 100.583 12.9712 98.7063 10.0947Z" fill="#2F2E41"/>
<path d="M233.125 230.148V504.01C233.128 507.5 234.516 510.846 236.985 513.314C239.453 515.782 242.801 517.169 246.292 517.172H652.273C655.765 517.169 659.112 515.782 661.581 513.314C664.049 510.846 665.438 507.5 665.44 504.01V230.148C665.432 226.661 664.042 223.319 661.574 220.855C659.106 218.391 655.762 217.004 652.273 217H246.292C242.804 217.004 239.459 218.391 236.992 220.855C234.524 223.319 233.133 226.661 233.125 230.148Z" fill="#3F3D56"/>
<path d="M242.658 233.554V500.63C242.661 502.495 243.404 504.282 244.723 505.601C246.042 506.919 247.83 507.662 249.695 507.665H648.903C650.768 507.662 652.556 506.919 653.875 505.601C655.194 504.282 655.937 502.495 655.94 500.63V233.554C655.94 231.687 655.199 229.896 653.88 228.575C652.56 227.253 650.771 226.509 648.903 226.505H249.695C247.828 226.509 246.038 227.253 244.719 228.575C243.399 229.896 242.658 231.687 242.658 233.554Z" fill="white"/>
<path d="M224.642 557.42C225.386 558.352 226.331 559.104 227.407 559.619C228.483 560.133 229.662 560.398 230.855 560.391H665.565C666.754 560.39 667.928 560.124 669.001 559.612C670.074 559.1 671.019 558.355 671.768 557.432C672.517 556.509 673.05 555.431 673.33 554.276C673.61 553.121 673.628 551.918 673.385 550.755L666.636 518.714C666.357 517.407 665.755 516.191 664.885 515.176C664.015 514.162 662.905 513.381 661.656 512.905C660.752 512.55 659.789 512.369 658.817 512.369H237.576C236.605 512.368 235.642 512.55 234.738 512.905C233.489 513.381 232.379 514.162 231.509 515.176C230.639 516.191 230.037 517.407 229.757 518.714L223.009 550.755C222.769 551.918 222.791 553.119 223.073 554.272C223.356 555.425 223.892 556.5 224.642 557.42Z" fill="#2F2E41"/>
<path d="M642.804 526.17H655.261C655.518 526.17 655.727 525.962 655.727 525.705V518.606C655.727 518.348 655.518 518.14 655.261 518.14H642.804C642.546 518.14 642.338 518.348 642.338 518.606V525.705C642.338 525.962 642.546 526.17 642.804 526.17Z" fill="#3F3D56"/>
<path d="M616.026 526.17H628.483C628.741 526.17 628.949 525.962 628.949 525.705V518.606C628.949 518.348 628.741 518.14 628.483 518.14H616.026C615.769 518.14 615.56 518.348 615.56 518.606V525.705C615.56 525.962 615.769 526.17 616.026 526.17Z" fill="#3F3D56"/>
<path d="M589.245 526.17H601.702C601.959 526.17 602.168 525.962 602.168 525.705V518.606C602.168 518.348 601.959 518.14 601.702 518.14H589.245C588.988 518.14 588.779 518.348 588.779 518.606V525.705C588.779 525.962 588.988 526.17 589.245 526.17Z" fill="#3F3D56"/>
<path d="M562.477 526.17H574.934C575.192 526.17 575.4 525.962 575.4 525.705V518.606C575.4 518.348 575.192 518.14 574.934 518.14H562.477C562.22 518.14 562.011 518.348 562.011 518.606V525.705C562.011 525.962 562.22 526.17 562.477 526.17Z" fill="#3F3D56"/>
<path d="M535.696 526.17H548.153C548.411 526.17 548.619 525.962 548.619 525.705V518.606C548.619 518.348 548.411 518.14 548.153 518.14H535.696C535.439 518.14 535.23 518.348 535.23 518.606V525.705C535.23 525.962 535.439 526.17 535.696 526.17Z" fill="#3F3D56"/>
<path d="M508.917 526.17H521.374C521.631 526.17 521.84 525.962 521.84 525.705V518.606C521.84 518.348 521.631 518.14 521.374 518.14H508.917C508.66 518.14 508.451 518.348 508.451 518.606V525.705C508.451 525.962 508.66 526.17 508.917 526.17Z" fill="#3F3D56"/>
<path d="M482.136 526.17H494.593C494.85 526.17 495.059 525.962 495.059 525.705V518.606C495.059 518.348 494.85 518.14 494.593 518.14H482.136C481.878 518.14 481.67 518.348 481.67 518.606V525.705C481.67 525.962 481.878 526.17 482.136 526.17Z" fill="#3F3D56"/>
<path d="M455.356 526.17H467.813C468.071 526.17 468.279 525.962 468.279 525.705V518.606C468.279 518.348 468.071 518.14 467.813 518.14H455.356C455.099 518.14 454.89 518.348 454.89 518.606V525.705C454.89 525.962 455.099 526.17 455.356 526.17Z" fill="#3F3D56"/>
<path d="M428.577 526.17H441.034C441.291 526.17 441.5 525.962 441.5 525.705V518.606C441.5 518.348 441.291 518.14 441.034 518.14H428.577C428.32 518.14 428.111 518.348 428.111 518.606V525.705C428.111 525.962 428.32 526.17 428.577 526.17Z" fill="#3F3D56"/>
<path d="M401.81 526.17H414.266C414.524 526.17 414.732 525.962 414.732 525.705V518.606C414.732 518.348 414.524 518.14 414.266 518.14H401.81C401.552 518.14 401.344 518.348 401.344 518.606V525.705C401.344 525.962 401.552 526.17 401.81 526.17Z" fill="#3F3D56"/>
<path d="M375.028 526.17H387.485C387.743 526.17 387.951 525.962 387.951 525.705V518.606C387.951 518.348 387.743 518.14 387.485 518.14H375.028C374.771 518.14 374.562 518.348 374.562 518.606V525.705C374.562 525.962 374.771 526.17 375.028 526.17Z" fill="#3F3D56"/>
<path d="M348.249 526.17H360.706C360.963 526.17 361.172 525.962 361.172 525.705V518.606C361.172 518.348 360.963 518.14 360.706 518.14H348.249C347.992 518.14 347.783 518.348 347.783 518.606V525.705C347.783 525.962 347.992 526.17 348.249 526.17Z" fill="#3F3D56"/>
<path d="M321.468 526.17H333.925C334.182 526.17 334.391 525.962 334.391 525.705V518.606C334.391 518.348 334.182 518.14 333.925 518.14H321.468C321.21 518.14 321.002 518.348 321.002 518.606V525.705C321.002 525.962 321.21 526.17 321.468 526.17Z" fill="#3F3D56"/>
<path d="M294.692 526.17H307.149C307.407 526.17 307.615 525.962 307.615 525.705V518.606C307.615 518.348 307.407 518.14 307.149 518.14H294.692C294.435 518.14 294.226 518.348 294.226 518.606V525.705C294.226 525.962 294.435 526.17 294.692 526.17Z" fill="#3F3D56"/>
<path d="M267.911 526.17H280.368C280.625 526.17 280.834 525.962 280.834 525.705V518.606C280.834 518.348 280.625 518.14 280.368 518.14H267.911C267.654 518.14 267.445 518.348 267.445 518.606V525.705C267.445 525.962 267.654 526.17 267.911 526.17Z" fill="#3F3D56"/>
<path d="M241.14 526.17H253.597C253.854 526.17 254.062 525.962 254.062 525.705V518.606C254.062 518.348 253.854 518.14 253.597 518.14H241.14C240.882 518.14 240.674 518.348 240.674 518.606V525.705C240.674 525.962 240.882 526.17 241.14 526.17Z" fill="#3F3D56"/>
<path d="M643.122 539.554H655.579C655.836 539.554 656.045 539.346 656.045 539.088V531.99C656.045 531.732 655.836 531.524 655.579 531.524H643.122C642.865 531.524 642.656 531.732 642.656 531.99V539.088C642.656 539.346 642.865 539.554 643.122 539.554Z" fill="#3F3D56"/>
<path d="M616.339 539.554H628.796C629.053 539.554 629.262 539.346 629.262 539.088V531.99C629.262 531.732 629.053 531.524 628.796 531.524H616.339C616.081 531.524 615.873 531.732 615.873 531.99V539.088C615.873 539.346 616.081 539.554 616.339 539.554Z" fill="#3F3D56"/>
<path d="M589.563 539.554H602.02C602.278 539.554 602.486 539.346 602.486 539.088V531.99C602.486 531.732 602.278 531.524 602.02 531.524H589.563C589.306 531.524 589.097 531.732 589.097 531.99V539.088C589.097 539.346 589.306 539.554 589.563 539.554Z" fill="#3F3D56"/>
<path d="M562.784 539.554H575.241C575.498 539.554 575.707 539.346 575.707 539.088V531.99C575.707 531.732 575.498 531.524 575.241 531.524H562.784C562.527 531.524 562.318 531.732 562.318 531.99V539.088C562.318 539.346 562.527 539.554 562.784 539.554Z" fill="#3F3D56"/>
<path d="M536.007 539.554H548.464C548.721 539.554 548.93 539.346 548.93 539.088V531.99C548.93 531.732 548.721 531.524 548.464 531.524H536.007C535.749 531.524 535.541 531.732 535.541 531.99V539.088C535.541 539.346 535.749 539.554 536.007 539.554Z" fill="#3F3D56"/>
<path d="M509.231 539.554H521.688C521.946 539.554 522.154 539.346 522.154 539.088V531.99C522.154 531.732 521.946 531.524 521.688 531.524H509.231C508.974 531.524 508.765 531.732 508.765 531.99V539.088C508.765 539.346 508.974 539.554 509.231 539.554Z" fill="#3F3D56"/>
<path d="M482.454 539.554H494.911C495.168 539.554 495.377 539.346 495.377 539.088V531.99C495.377 531.732 495.168 531.524 494.911 531.524H482.454C482.197 531.524 481.988 531.732 481.988 531.99V539.088C481.988 539.346 482.197 539.554 482.454 539.554Z" fill="#3F3D56"/>
<path d="M455.671 539.554H468.128C468.385 539.554 468.594 539.346 468.594 539.088V531.99C468.594 531.732 468.385 531.524 468.128 531.524H455.671C455.413 531.524 455.205 531.732 455.205 531.99V539.088C455.205 539.346 455.413 539.554 455.671 539.554Z" fill="#3F3D56"/>
<path d="M428.895 539.554H441.352C441.61 539.554 441.818 539.346 441.818 539.088V531.99C441.818 531.732 441.61 531.524 441.352 531.524H428.895C428.638 531.524 428.429 531.732 428.429 531.99V539.088C428.429 539.346 428.638 539.554 428.895 539.554Z" fill="#3F3D56"/>
<path d="M402.114 539.554H414.571C414.828 539.554 415.037 539.346 415.037 539.088V531.99C415.037 531.732 414.828 531.524 414.571 531.524H402.114C401.857 531.524 401.648 531.732 401.648 531.99V539.088C401.648 539.346 401.857 539.554 402.114 539.554Z" fill="#3F3D56"/>
<path d="M375.345 539.554H387.802C388.059 539.554 388.268 539.346 388.268 539.088V531.99C388.268 531.732 388.059 531.524 387.802 531.524H375.345C375.087 531.524 374.879 531.732 374.879 531.99V539.088C374.879 539.346 375.087 539.554 375.345 539.554Z" fill="#3F3D56"/>
<path d="M348.563 539.554H361.02C361.278 539.554 361.486 539.346 361.486 539.088V531.99C361.486 531.732 361.278 531.524 361.02 531.524H348.563C348.306 531.524 348.097 531.732 348.097 531.99V539.088C348.097 539.346 348.306 539.554 348.563 539.554Z" fill="#3F3D56"/>
<path d="M321.788 539.554H334.245C334.502 539.554 334.711 539.346 334.711 539.088V531.99C334.711 531.732 334.502 531.524 334.245 531.524H321.788C321.531 531.524 321.322 531.732 321.322 531.99V539.088C321.322 539.346 321.531 539.554 321.788 539.554Z" fill="#3F3D56"/>
<path d="M295.009 539.554H307.466C307.723 539.554 307.932 539.346 307.932 539.088V531.99C307.932 531.732 307.723 531.524 307.466 531.524H295.009C294.751 531.524 294.543 531.732 294.543 531.99V539.088C294.543 539.346 294.751 539.554 295.009 539.554Z" fill="#3F3D56"/>
<path d="M268.229 539.554H280.686C280.944 539.554 281.152 539.346 281.152 539.088V531.99C281.152 531.732 280.944 531.524 280.686 531.524H268.229C267.972 531.524 267.763 531.732 267.763 531.99V539.088C267.763 539.346 267.972 539.554 268.229 539.554Z" fill="#3F3D56"/>
<path d="M241.454 539.554H253.911C254.168 539.554 254.377 539.346 254.377 539.088V531.99C254.377 531.732 254.168 531.524 253.911 531.524H241.454C241.197 531.524 240.988 531.732 240.988 531.99V539.088C240.988 539.346 241.197 539.554 241.454 539.554Z" fill="#3F3D56"/>
<path d="M391.275 555.615H497.454C497.711 555.615 497.92 555.406 497.92 555.149V548.05C497.92 547.793 497.711 547.584 497.454 547.584H391.275C391.017 547.584 390.809 547.793 390.809 548.05V555.149C390.809 555.406 391.017 555.615 391.275 555.615Z" fill="#3F3D56"/>
<path d="M436.357 350.075L436.372 350.073C436.47 349.983 436.562 349.885 436.645 349.781L436.357 350.075Z" fill="#6C63FF"/>
<path d="M474.5 423.115L474.504 423.124L474.587 422.964L474.5 423.115Z" fill="#6C63FF"/>
<path d="M634.143 274.855H264.448C264.195 274.849 263.954 274.745 263.776 274.564C263.599 274.383 263.5 274.139 263.5 273.886C263.5 273.633 263.599 273.39 263.776 273.209C263.954 273.027 264.195 272.923 264.448 272.917H634.143C634.397 272.923 634.638 273.027 634.815 273.209C634.992 273.39 635.091 273.633 635.091 273.886C635.091 274.139 634.992 274.383 634.815 274.564C634.638 274.745 634.397 274.849 634.143 274.855Z" fill="#CACACA"/>
<path d="M285.782 261.292C291.541 261.292 296.21 256.521 296.21 250.636C296.21 244.75 291.541 239.979 285.782 239.979C280.022 239.979 275.354 244.75 275.354 250.636C275.354 256.521 280.022 261.292 285.782 261.292Z" fill="#3F3D56"/>
<path d="M321.803 261.292C327.562 261.292 332.231 256.521 332.231 250.636C332.231 244.75 327.562 239.979 321.803 239.979C316.044 239.979 311.375 244.75 311.375 250.636C311.375 256.521 316.044 261.292 321.803 261.292Z" fill="#3F3D56"/>
<path d="M357.838 261.292C363.598 261.292 368.266 256.521 368.266 250.636C368.266 244.75 363.598 239.979 357.838 239.979C352.079 239.979 347.41 244.75 347.41 250.636C347.41 256.521 352.079 261.292 357.838 261.292Z" fill="#3F3D56"/>
<path d="M612.552 242.62H586.962C586.455 242.63 585.972 242.839 585.617 243.201C585.261 243.563 585.062 244.05 585.062 244.557C585.062 245.064 585.261 245.551 585.617 245.913C585.972 246.276 586.455 246.484 586.962 246.494H612.552C613.059 246.484 613.542 246.276 613.897 245.913C614.252 245.551 614.451 245.064 614.451 244.557C614.451 244.05 614.252 243.563 613.897 243.201C613.542 242.839 613.059 242.63 612.552 242.62Z" fill="#3F3D56"/>
<path d="M612.552 249.891H586.962C586.455 249.901 585.972 250.109 585.617 250.472C585.261 250.834 585.062 251.321 585.062 251.828C585.062 252.335 585.261 252.822 585.617 253.184C585.972 253.546 586.455 253.755 586.962 253.765H612.552C613.059 253.755 613.542 253.546 613.897 253.184C614.252 252.822 614.451 252.335 614.451 251.828C614.451 251.321 614.252 250.834 613.897 250.472C613.542 250.109 613.059 249.901 612.552 249.891Z" fill="#3F3D56"/>
<path d="M612.552 257.152H586.962C586.455 257.162 585.972 257.371 585.617 257.733C585.261 258.095 585.062 258.582 585.062 259.089C585.062 259.596 585.261 260.083 585.617 260.445C585.972 260.808 586.455 261.016 586.962 261.026H612.552C613.059 261.016 613.542 260.808 613.897 260.445C614.252 260.083 614.451 259.596 614.451 259.089C614.451 258.582 614.252 258.095 613.897 257.733C613.542 257.371 613.059 257.162 612.552 257.152Z" fill="#3F3D56"/>
<path d="M55.2546 286.199C55.131 286.208 55.0141 286.188 54.904 286.138C54.7958 286.086 54.7057 286.009 54.6337 285.906C54.5636 285.801 54.523 285.675 54.5119 285.53C54.4955 285.312 54.5431 285.134 54.655 284.995C54.7666 284.855 54.9262 284.776 55.1336 284.761C55.2493 284.752 55.3572 284.773 55.4573 284.823C55.5572 284.872 55.6272 284.935 55.6671 285.012L55.6345 284.78L55.5703 283.933L55.8874 283.909L56.054 286.108L55.7459 286.131L55.7216 285.889C55.6931 285.964 55.6361 286.032 55.5506 286.095C55.465 286.156 55.3663 286.19 55.2546 286.199ZM55.2878 285.922C55.4015 285.914 55.4943 285.868 55.5662 285.784C55.6379 285.698 55.6689 285.592 55.6592 285.464L55.6577 285.443C55.6512 285.357 55.6274 285.282 55.5864 285.217C55.5453 285.152 55.4925 285.103 55.4278 285.069C55.3631 285.036 55.2938 285.022 55.22 285.028C55.0924 285.038 54.9969 285.087 54.9334 285.176C54.8698 285.263 54.843 285.372 54.853 285.504C54.8631 285.638 54.9052 285.744 54.9794 285.822C55.0554 285.899 55.1582 285.932 55.2878 285.922Z" fill="#282836"/>
<path d="M57.134 286.056C56.9705 286.069 56.8314 286.047 56.7169 285.992C56.6022 285.934 56.5149 285.853 56.4549 285.75C56.3947 285.644 56.3597 285.526 56.3499 285.397C56.3389 285.251 56.3591 285.121 56.4106 285.007C56.4641 284.892 56.5425 284.802 56.6459 284.736C56.749 284.668 56.8684 284.629 57.004 284.619C57.2154 284.603 57.3764 284.65 57.487 284.76C57.5995 284.868 57.6637 285.027 57.6798 285.239C57.6838 285.292 57.6851 285.349 57.6835 285.407L56.6963 285.482C56.7275 285.602 56.777 285.686 56.8449 285.735C56.9148 285.784 57.0076 285.804 57.1232 285.795C57.219 285.788 57.2971 285.774 57.3577 285.753C57.4184 285.733 57.4735 285.707 57.5233 285.675L57.6394 285.898C57.592 285.933 57.5263 285.966 57.4424 285.997C57.3584 286.027 57.2556 286.047 57.134 286.056ZM57.3614 285.206C57.354 285.082 57.3205 284.997 57.2609 284.951C57.2011 284.904 57.1194 284.884 57.0157 284.892C56.8063 284.908 56.6941 285.029 56.6793 285.257L57.3614 285.206Z" fill="#282836"/>
<path d="M58.5496 285.949C58.4539 285.956 58.3533 285.952 58.2477 285.936C58.1441 285.917 58.069 285.893 58.0226 285.862L58.111 285.6C58.237 285.675 58.3768 285.706 58.5303 285.695C58.6839 285.683 58.7573 285.632 58.7505 285.543C58.7475 285.503 58.7292 285.473 58.6956 285.453C58.662 285.434 58.6032 285.412 58.5192 285.389L58.4023 285.355C58.279 285.317 58.18 285.267 58.1052 285.206C58.0303 285.144 57.9887 285.058 57.9804 284.948C57.9708 284.822 58.0123 284.721 58.1047 284.644C58.199 284.564 58.3289 284.519 58.4944 284.506C58.5762 284.5 58.6566 284.503 58.7358 284.515C58.8169 284.527 58.8795 284.545 58.9235 284.57L58.8263 284.836C58.7984 284.812 58.7549 284.793 58.6957 284.78C58.6383 284.764 58.5747 284.759 58.5049 284.764C58.3633 284.775 58.2958 284.823 58.3023 284.909C58.3059 284.956 58.3277 284.992 58.3675 285.015C58.4072 285.036 58.4711 285.058 58.5591 285.082C58.5672 285.083 58.599 285.092 58.6543 285.108C58.7857 285.148 58.8848 285.197 58.9514 285.257C59.0181 285.316 59.0552 285.395 59.0628 285.495C59.073 285.63 59.029 285.737 58.9306 285.815C58.8341 285.892 58.7072 285.937 58.5496 285.949Z" fill="#282836"/>
<path d="M59.3471 284.477L59.6822 284.452L59.7862 285.825L59.4512 285.851L59.3471 284.477ZM59.4922 284.208C59.4304 284.212 59.3769 284.195 59.3319 284.157C59.2868 284.118 59.2619 284.068 59.2573 284.006C59.253 283.95 59.2703 283.901 59.3092 283.858C59.348 283.814 59.3984 283.791 59.4602 283.786C59.52 283.781 59.5724 283.797 59.6173 283.834C59.6622 283.871 59.6868 283.917 59.691 283.973C59.6957 284.035 59.6787 284.088 59.64 284.133C59.6033 284.178 59.554 284.203 59.4922 284.208Z" fill="#282836"/>
<path d="M60.955 286.459C60.8533 286.466 60.7516 286.46 60.6497 286.44C60.5499 286.419 60.4781 286.398 60.4344 286.378L60.4836 286.073C60.6217 286.149 60.7685 286.181 60.9241 286.169C61.0437 286.16 61.1423 286.124 61.2196 286.059C61.297 285.995 61.3304 285.88 61.3197 285.712L61.3011 285.467C61.2651 285.548 61.2022 285.618 61.1124 285.676C61.0226 285.735 60.9208 285.769 60.8072 285.778C60.6875 285.787 60.5756 285.766 60.4715 285.716C60.3673 285.664 60.2821 285.585 60.216 285.48C60.1498 285.374 60.1112 285.249 60.1002 285.103C60.0896 284.964 60.1072 284.838 60.1528 284.726C60.2004 284.612 60.2727 284.522 60.3699 284.454C60.4671 284.387 60.5835 284.348 60.7191 284.337C60.7988 284.331 60.8747 284.34 60.9466 284.362C61.0185 284.385 61.08 284.415 61.131 284.454C61.1839 284.49 61.2198 284.527 61.2388 284.566L61.2273 284.335L61.5325 284.312L61.6358 285.676C61.6535 285.909 61.6073 286.093 61.4972 286.228C61.387 286.363 61.2063 286.44 60.955 286.459ZM60.8763 285.499C60.99 285.49 61.0827 285.444 61.1546 285.36C61.2264 285.275 61.2574 285.168 61.2477 285.04L61.2461 285.02C61.2396 284.934 61.2159 284.858 61.1748 284.793C61.1338 284.728 61.0809 284.679 61.0162 284.646C60.9515 284.613 60.8823 284.599 60.8085 284.604C60.6809 284.614 60.5853 284.663 60.5219 284.752C60.4583 284.84 60.4315 284.949 60.4414 285.08C60.4516 285.214 60.4937 285.32 60.5678 285.399C60.6438 285.475 60.7467 285.509 60.8763 285.499Z" fill="#282836"/>
<path d="M61.9465 284.28L62.2636 284.256L62.2857 284.508C62.3172 284.421 62.3718 284.348 62.4495 284.287C62.5272 284.227 62.6209 284.193 62.7306 284.185C62.8722 284.174 62.9831 284.196 63.0634 284.25C63.1436 284.302 63.2007 284.38 63.2346 284.484C63.2685 284.587 63.2919 284.724 63.3048 284.894L63.3549 285.555L63.0318 285.579L62.9824 284.927C62.9692 284.754 62.9428 284.63 62.9032 284.557C62.8634 284.482 62.7906 284.448 62.6849 284.456C62.6251 284.461 62.5657 284.484 62.5068 284.527C62.4477 284.567 62.3998 284.624 62.3632 284.697C62.3286 284.77 62.3149 284.853 62.322 284.947L62.3737 285.629L62.0506 285.654L61.9465 284.28Z" fill="#282836"/>
<path d="M64.4227 285.504C64.2591 285.516 64.1201 285.495 64.0056 285.439C63.8909 285.382 63.8036 285.301 63.7435 285.197C63.6834 285.092 63.6484 284.974 63.6386 284.844C63.6275 284.699 63.6478 284.569 63.6993 284.455C63.7528 284.34 63.8312 284.25 63.9345 284.184C64.0377 284.116 64.1571 284.077 64.2927 284.067C64.5041 284.051 64.6651 284.098 64.7757 284.207C64.8882 284.315 64.9524 284.475 64.9684 284.686C64.9725 284.74 64.9738 284.796 64.9722 284.854L63.985 284.929C64.0161 285.049 64.0657 285.134 64.1336 285.183C64.2035 285.232 64.2962 285.252 64.4119 285.243C64.5076 285.236 64.5858 285.222 64.6464 285.201C64.707 285.18 64.7622 285.154 64.8119 285.122L64.9281 285.345C64.8807 285.381 64.815 285.414 64.731 285.444C64.6471 285.475 64.5443 285.495 64.4227 285.504ZM64.65 284.653C64.6427 284.529 64.6092 284.445 64.5495 284.399C64.4898 284.352 64.408 284.332 64.3043 284.339C64.0949 284.355 63.9828 284.477 63.968 284.705L64.65 284.653Z" fill="#282836"/>
<path d="M65.9729 285.386C65.8493 285.396 65.7324 285.376 65.6223 285.326C65.5141 285.274 65.424 285.196 65.352 285.093C65.2818 284.988 65.2413 284.863 65.2302 284.718C65.2138 284.5 65.2614 284.322 65.3733 284.183C65.4849 284.042 65.6445 283.964 65.8519 283.948C65.9676 283.94 66.0754 283.961 66.1756 284.011C66.2755 284.06 66.3455 284.123 66.3854 284.2L66.3528 283.968L66.2886 283.121L66.6057 283.097L66.7723 285.296L66.4642 285.319L66.4399 285.077C66.4114 285.152 66.3544 285.22 66.2689 285.283C66.1832 285.343 66.0846 285.378 65.9729 285.386ZM66.0061 285.11C66.1198 285.101 66.2126 285.055 66.2844 284.972C66.3562 284.886 66.3872 284.779 66.3775 284.652L66.3759 284.631C66.3694 284.545 66.3457 284.47 66.3046 284.405C66.2636 284.339 66.2107 284.29 66.146 284.257C66.0814 284.224 66.0121 284.21 65.9383 284.216C65.8107 284.225 65.7151 284.275 65.6517 284.364C65.5881 284.451 65.5613 284.56 65.5713 284.692C65.5814 284.825 65.6235 284.931 65.6977 285.01C65.7737 285.087 65.8765 285.12 66.0061 285.11Z" fill="#282836"/>
<path d="M68.7501 285.176C68.6384 285.184 68.5356 285.165 68.4418 285.118C68.3498 285.069 68.2842 285.01 68.2448 284.94L68.2572 285.183L67.9461 285.207L67.7795 283.008L68.0966 282.984L68.1607 283.831L68.1634 284.065C68.1913 283.983 68.252 283.91 68.3455 283.847C68.4408 283.781 68.5463 283.744 68.662 283.735C68.7976 283.725 68.9176 283.747 69.022 283.801C69.1282 283.854 69.2124 283.932 69.2746 284.038C69.3366 284.142 69.373 284.265 69.3839 284.409C69.3949 284.554 69.3726 284.684 69.317 284.796C69.2633 284.908 69.1858 284.997 69.0845 285.063C68.9852 285.129 68.8737 285.167 68.7501 285.176ZM68.6758 284.911C68.8054 284.901 68.902 284.853 68.9657 284.765C69.0291 284.676 69.0558 284.566 69.0459 284.434C69.0357 284.301 68.9927 284.196 68.9167 284.119C68.8425 284.041 68.7396 284.006 68.608 284.016C68.4944 284.025 68.4016 284.072 68.3299 284.158C68.258 284.241 68.2269 284.347 68.2366 284.475L68.2382 284.496C68.2447 284.581 68.2684 284.657 68.3095 284.722C68.3525 284.787 68.4054 284.836 68.4681 284.869C68.5328 284.903 68.602 284.916 68.6758 284.911Z" fill="#282836"/>
<path d="M70.1784 285.08L69.5028 283.708L69.8678 283.68L70.2271 284.531L70.3091 284.739L70.3588 284.522L70.6007 283.625L70.9537 283.598L70.2713 285.789L69.9362 285.814L70.1784 285.08Z" fill="#282836"/>
<path d="M72.8165 284.868C72.7048 284.876 72.6021 284.857 72.5083 284.81C72.4163 284.761 72.3506 284.702 72.3113 284.632L72.3237 284.875L72.0126 284.899L71.8459 282.7L72.163 282.676L72.2272 283.522L72.2299 283.757C72.2578 283.675 72.3184 283.602 72.4119 283.539C72.5072 283.473 72.6128 283.436 72.7284 283.427C72.864 283.417 72.984 283.439 73.0884 283.493C73.1947 283.545 73.2789 283.624 73.341 283.73C73.403 283.833 73.4395 283.957 73.4504 284.101C73.4614 284.246 73.4391 284.375 73.3834 284.488C73.3298 284.6 73.2523 284.689 73.151 284.755C73.0517 284.821 72.9402 284.858 72.8165 284.868ZM72.7423 284.603C72.8719 284.593 72.9685 284.544 73.0321 284.457C73.0956 284.368 73.1223 284.258 73.1123 284.126C73.1022 283.993 73.0592 283.888 72.9832 283.811C72.909 283.733 72.8061 283.698 72.6745 283.708C72.5608 283.717 72.4681 283.764 72.3964 283.85C72.3245 283.933 72.2934 284.039 72.3031 284.167L72.3046 284.188C72.3111 284.273 72.3349 284.349 72.376 284.414C72.419 284.479 72.4718 284.528 72.5345 284.561C72.5992 284.594 72.6685 284.608 72.7423 284.603Z" fill="#282836"/>
<path d="M74.4893 284.741C74.3477 284.752 74.2196 284.729 74.1051 284.674C73.9906 284.618 73.8993 284.538 73.8311 284.433C73.763 284.328 73.7238 284.208 73.7137 284.075C73.7038 283.943 73.7235 283.82 73.773 283.706C73.8246 283.592 73.9027 283.499 74.0076 283.427C74.1124 283.355 74.2367 283.313 74.3802 283.302C74.5238 283.291 74.6519 283.314 74.7644 283.369C74.8789 283.425 74.9693 283.505 75.0354 283.611C75.1036 283.716 75.1426 283.834 75.1526 283.966C75.1627 284.099 75.142 284.223 75.0905 284.337C75.039 284.452 74.9608 284.545 74.856 284.617C74.7531 284.689 74.6309 284.73 74.4893 284.741ZM74.4783 284.477C74.594 284.468 74.6815 284.419 74.7408 284.328C74.8021 284.237 74.8278 284.127 74.818 283.997C74.8082 283.867 74.7641 283.761 74.6856 283.679C74.607 283.595 74.5089 283.557 74.3912 283.566C74.2775 283.575 74.1891 283.625 74.126 283.719C74.0648 283.811 74.0392 283.924 74.0492 284.055C74.0589 284.183 74.1039 284.288 74.1844 284.37C74.2647 284.45 74.3626 284.486 74.4783 284.477Z" fill="#282836"/>
<path d="M75.437 283.258L75.76 283.234L75.7804 283.503C75.8054 283.409 75.8516 283.331 75.9192 283.27C75.9868 283.208 76.0664 283.174 76.1582 283.167C76.222 283.163 76.2663 283.165 76.2911 283.175L76.271 283.505C76.2521 283.494 76.2128 283.491 76.153 283.496C76.0592 283.503 75.9757 283.539 75.9025 283.605C75.8312 283.671 75.8006 283.769 75.8106 283.901L75.8641 284.607L75.541 284.631L75.437 283.258Z" fill="#282836"/>
<path d="M77.2346 284.533C77.1109 284.542 76.994 284.522 76.884 284.472C76.7757 284.42 76.6856 284.343 76.6136 284.24C76.5435 284.135 76.5029 284.01 76.4919 283.864C76.4754 283.647 76.5231 283.469 76.6349 283.33C76.7466 283.189 76.9061 283.111 77.1135 283.095C77.2292 283.086 77.3371 283.107 77.4372 283.158C77.5372 283.206 77.6071 283.269 77.6471 283.346L77.6144 283.114L77.5503 282.268L77.8674 282.244L78.034 284.442L77.7259 284.466L77.7015 284.224C77.6731 284.298 77.6161 284.367 77.5306 284.429C77.4449 284.49 77.3462 284.525 77.2346 284.533ZM77.2678 284.257C77.3814 284.248 77.4742 284.202 77.5461 284.118C77.6178 284.033 77.6489 283.926 77.6392 283.798L77.6376 283.777C77.6311 283.692 77.6073 283.616 77.5663 283.551C77.5253 283.486 77.4724 283.437 77.4077 283.404C77.343 283.37 77.2738 283.357 77.2 283.362C77.0723 283.372 76.9768 283.421 76.9134 283.51C76.8497 283.597 76.8229 283.707 76.8329 283.838C76.843 283.972 76.8852 284.078 76.9593 284.157C77.0353 284.233 77.1381 284.267 77.2678 284.257Z" fill="#282836"/>
<path d="M79.1139 284.391C78.9504 284.403 78.8114 284.381 78.6969 284.326C78.5822 284.268 78.4948 284.188 78.4348 284.084C78.3747 283.978 78.3397 283.861 78.3298 283.731C78.3188 283.585 78.3391 283.455 78.3906 283.341C78.4441 283.227 78.5225 283.137 78.6258 283.071C78.729 283.003 78.8483 282.964 78.984 282.953C79.1954 282.937 79.3564 282.984 79.467 283.094C79.5794 283.202 79.6437 283.362 79.6597 283.573C79.6638 283.627 79.665 283.683 79.6634 283.741L78.6763 283.816C78.7074 283.936 78.757 284.02 78.8248 284.069C78.8947 284.118 78.9875 284.138 79.1032 284.13C79.1989 284.122 79.2771 284.108 79.3377 284.088C79.3983 284.067 79.4535 284.041 79.5032 284.009L79.6194 284.232C79.572 284.268 79.5063 284.301 79.4223 284.331C79.3384 284.362 79.2356 284.381 79.1139 284.391ZM79.3413 283.54C79.3339 283.416 79.3004 283.331 79.2408 283.286C79.181 283.238 79.0993 283.218 78.9956 283.226C78.7862 283.242 78.6741 283.364 78.6593 283.592L79.3413 283.54Z" fill="#282836"/>
<path d="M79.9416 282.917L80.2647 282.892L80.2851 283.162C80.3101 283.067 80.3563 282.99 80.4239 282.928C80.4914 282.867 80.5711 282.833 80.6628 282.826C80.7266 282.821 80.771 282.824 80.7958 282.834L80.7756 283.163C80.7568 283.153 80.7174 283.15 80.6576 283.154C80.5639 283.161 80.4804 283.198 80.4072 283.264C80.3359 283.329 80.3053 283.428 80.3152 283.559L80.3687 284.265L80.0457 284.29L79.9416 282.917Z" fill="#282836"/>
<path d="M81.6046 284.202C81.5089 284.209 81.4082 284.205 81.3027 284.189C81.1991 284.17 81.124 284.146 81.0776 284.115L81.166 283.853C81.292 283.928 81.4318 283.959 81.5853 283.948C81.7389 283.936 81.8123 283.885 81.8055 283.795C81.8024 283.756 81.7841 283.726 81.7506 283.706C81.717 283.687 81.6582 283.665 81.5742 283.642L81.4573 283.608C81.334 283.569 81.235 283.52 81.1602 283.459C81.0853 283.397 81.0436 283.311 81.0353 283.201C81.0258 283.075 81.0673 282.974 81.1597 282.897C81.254 282.817 81.3839 282.771 81.5494 282.759C81.6312 282.753 81.7116 282.756 81.7908 282.768C81.8719 282.78 81.9344 282.798 81.9784 282.823L81.8813 283.089C81.8534 283.065 81.8098 283.046 81.7506 283.032C81.6933 283.017 81.6297 283.012 81.5599 283.017C81.4183 283.028 81.3508 283.076 81.3573 283.162C81.3609 283.209 81.3827 283.245 81.4225 283.268C81.4622 283.289 81.5261 283.311 81.6141 283.335C81.6222 283.336 81.654 283.345 81.7093 283.361C81.8407 283.401 81.9398 283.45 82.0064 283.509C82.0731 283.569 82.1102 283.648 82.1178 283.748C82.128 283.883 82.084 283.99 81.9855 284.068C81.8891 284.145 81.7621 284.19 81.6046 284.202Z" fill="#282836"/>
<path d="M82.9572 284.099C82.8614 284.107 82.7608 284.102 82.6553 284.086C82.5516 284.068 82.4766 284.043 82.4301 284.013L82.5185 283.75C82.6446 283.825 82.7843 283.857 82.9379 283.845C83.0915 283.833 83.1648 283.783 83.158 283.693C83.155 283.653 83.1367 283.623 83.1031 283.604C83.0696 283.584 83.0108 283.563 82.9267 283.539L82.8099 283.506C82.6866 283.467 82.5876 283.417 82.5128 283.357C82.4379 283.294 82.3962 283.208 82.3879 283.098C82.3784 282.973 82.4198 282.871 82.5123 282.794C82.6066 282.715 82.7364 282.669 82.902 282.656C82.9837 282.65 83.0642 282.653 83.1433 282.665C83.2245 282.677 83.287 282.695 83.331 282.72L83.2338 282.986C83.206 282.962 83.1624 282.944 83.1032 282.93C83.0459 282.914 82.9823 282.909 82.9125 282.914C82.7709 282.925 82.7033 282.973 82.7098 283.059C82.7135 283.107 82.7352 283.142 82.7751 283.165C82.8148 283.186 82.8786 283.209 82.9667 283.232C82.9748 283.234 83.0065 283.242 83.0619 283.258C83.1933 283.298 83.2923 283.348 83.359 283.407C83.4257 283.466 83.4628 283.546 83.4703 283.645C83.4806 283.781 83.4365 283.887 83.3381 283.965C83.2417 284.043 83.1147 284.087 82.9572 284.099Z" fill="#282836"/>
<path d="M97.2327 493.397L86.8918 485.3L88.4508 483.31L88.0846 483.023L86.8633 484.582L87.3632 503.072L109.874 520.698L110.189 520.296C112.76 517.014 113.922 512.846 113.419 508.709C112.916 504.571 110.79 500.802 107.507 498.232L105.15 489.278L102.211 488.438L97.2327 493.397Z" fill="#2F2E41"/>
<path d="M85.0659 495.929L78.2421 495.93L84.4647 500.802L85.0659 495.929Z" fill="#2F2E41"/>
<path d="M86.8633 484.582L78.0744 495.798L78.2421 495.93L85.0659 495.929L84.4647 500.802L87.3632 503.072L86.8633 484.582Z" fill="#2F2E41"/>
<path d="M86.8918 485.3L97.2327 493.397L102.211 488.438L90.8604 485.197L88.4508 483.31L86.8918 485.3Z" fill="#2F2E41"/>
<path d="M81.0841 528.201H65.6811L65.682 544.048L68.7396 544.048L79.6776 539.601L81.0841 528.201Z" fill="#FFB6B6"/>
<path d="M65.6822 546.578L78.8169 546.577L79.6776 539.601L68.7396 544.048L65.682 544.048L65.6822 546.578Z" fill="#2F2E41"/>
<path fill-rule="evenodd" clip-rule="evenodd" d="M148.737 254.53C148.737 254.53 166.17 272.603 158.422 314.557L164.927 386.393L166.606 389.718C167.606 391.7 167.955 393.946 167.604 396.138C167.252 398.33 166.218 400.355 164.647 401.924L163.265 406.211L161.973 414.602L113.87 486.892L108.955 481.721L98.3993 470.613L95.4679 467.529L125.169 399.757L117.098 382.329L98.3735 321.657L85.4599 432.675L86.8633 484.582L78.0744 495.798L78.2421 495.93L84.4647 500.802L87.3632 503.072L88.0426 528.201H81.0841H65.6811H63.3262L48.0103 421.702L31.8682 271.957L40.2647 254.53H148.737Z" fill="#282836"/>
<path d="M78.8169 546.577L65.6822 546.578L65.682 544.048H65.2135L65.2142 560.275L105.607 560.274V559.763C105.607 555.595 103.951 551.598 101.002 548.65C98.0537 545.703 94.0549 544.047 89.8853 544.047L82.506 538.451L79.6776 539.601L78.8169 546.577Z" fill="#2F2E41"/>
<path d="M90.8604 485.197L102.211 488.438L108.955 481.721L98.3993 470.613L88.4508 483.31L90.8604 485.197Z" fill="#FFB6B6"/>
</svg>
