<svg width="560" height="533" viewBox="0 0 560 533" fill="none" xmlns="http://www.w3.org/2000/svg">
<path d="M373.887 411.527C271.199 411.527 187.954 328.282 187.954 225.594C187.954 122.906 271.199 39.6609 373.887 39.6609C476.575 39.6609 559.82 122.906 559.82 225.594C559.82 328.282 476.575 411.527 373.887 411.527Z" fill="#E6E6E6"/>
<path d="M213.897 225.594C213.878 250.558 219.71 275.179 230.924 297.483C242.138 319.787 258.423 339.152 278.472 354.026C279.813 355.029 281.179 356.007 282.554 356.958C309.365 375.594 341.235 385.583 373.886 385.583C406.538 385.583 438.408 375.594 465.218 356.958C466.593 356.007 467.96 355.029 469.3 354.026C489.335 339.139 505.61 319.771 516.823 297.47C528.035 275.17 533.875 250.555 533.875 225.594C533.875 200.633 528.035 176.018 516.823 153.718C505.61 131.417 489.335 112.049 469.3 97.1618C467.96 96.1587 466.593 95.1814 465.218 94.2301C438.408 75.5937 406.538 65.6051 373.886 65.6051C341.235 65.6051 309.365 75.5937 282.554 94.2301C281.179 95.1814 279.813 96.1587 278.472 97.1618C258.423 112.036 242.138 131.401 230.924 153.705C219.71 176.009 213.878 200.63 213.897 225.594Z" fill="white"/>
<path d="M373.887 371.746C293.169 371.746 227.735 306.312 227.735 225.594C227.735 144.877 293.169 79.442 373.887 79.442C454.605 79.442 520.039 144.877 520.039 225.594C520.039 306.312 454.605 371.746 373.887 371.746Z" fill="#6C63FF"/>
<path opacity="0.2" d="M373.505 79.8505C375.72 79.8505 377.922 79.9084 380.114 80.006C343.175 83.2519 308.851 100.418 284.096 128.026C259.34 155.635 246.006 191.621 246.792 228.694C247.579 265.767 262.429 301.155 288.333 327.688C314.238 354.221 349.259 369.915 386.303 371.591C382.084 371.957 377.818 372.155 373.505 372.155C334.743 372.155 297.568 356.756 270.16 329.348C242.751 301.939 227.353 264.764 227.353 226.003C227.353 187.241 242.751 150.066 270.16 122.657C297.568 95.2486 334.743 79.8505 373.505 79.8505V79.8505Z" fill="black"/>
<path d="M373.458 69.0642C374.719 69.0664 375.928 69.5683 376.819 70.4598C377.711 71.3513 378.213 72.5598 378.215 73.8206V94.576C378.215 95.8374 377.714 97.0473 376.822 97.9393C375.93 98.8313 374.72 99.3324 373.458 99.3324C372.197 99.3324 370.987 98.8313 370.095 97.9393C369.203 97.0473 368.702 95.8374 368.702 94.576V73.8206C368.704 72.5598 369.206 71.3513 370.098 70.4598C370.989 69.5683 372.198 69.0664 373.458 69.0642Z" fill="white"/>
<path d="M278.473 97.1618C279.813 96.1587 281.18 95.1814 282.555 94.2302C283.38 94.1764 284.205 94.3387 284.948 94.7012C285.691 95.0637 286.327 95.6137 286.792 96.297L298.476 113.446C299.186 114.489 299.453 115.77 299.217 117.009C298.982 118.248 298.264 119.343 297.222 120.053C296.18 120.763 294.898 121.03 293.659 120.795C292.42 120.559 291.325 119.842 290.615 118.799L278.931 101.65C278.487 101 278.212 100.248 278.132 99.4643C278.052 98.6804 278.169 97.8889 278.473 97.1618Z" fill="white"/>
<path d="M225.379 175.357C225.613 174.779 225.96 174.253 226.398 173.809C226.837 173.365 227.358 173.011 227.933 172.769C228.508 172.526 229.126 172.399 229.75 172.395C230.374 172.391 230.993 172.51 231.571 172.746L250.804 180.555C251.971 181.03 252.902 181.95 253.392 183.112C253.882 184.273 253.89 185.582 253.416 186.75C252.941 187.918 252.023 188.849 250.861 189.34C249.7 189.831 248.392 189.841 247.224 189.367L227.99 181.558C226.823 181.08 225.893 180.159 225.404 178.997C224.914 177.835 224.905 176.526 225.379 175.357Z" fill="white"/>
<path d="M449.301 113.446L460.985 96.297C461.451 95.6137 462.086 95.0637 462.829 94.7012C463.573 94.3387 464.397 94.1764 465.223 94.2302C466.598 95.1814 467.964 96.1587 469.304 97.1618C469.608 97.8889 469.726 98.6804 469.645 99.4643C469.565 100.248 469.291 101 468.846 101.65L457.163 118.799C456.453 119.842 455.358 120.559 454.119 120.795C452.88 121.03 451.598 120.763 450.555 120.053C449.513 119.343 448.795 118.248 448.56 117.009C448.325 115.77 448.592 114.489 449.301 113.446Z" fill="white"/>
<path d="M496.96 180.555L516.193 172.746C517.362 172.271 518.671 172.28 519.833 172.771C520.994 173.262 521.914 174.194 522.389 175.362C522.863 176.531 522.854 177.84 522.364 179.002C521.874 180.164 520.942 181.083 519.773 181.558L500.54 189.367C499.372 189.841 498.063 189.831 496.902 189.34C495.741 188.849 494.822 187.918 494.348 186.75C493.873 185.582 493.882 184.273 494.372 183.112C494.861 181.95 495.792 181.031 496.96 180.555V180.555Z" fill="white"/>
<path d="M373.458 351.855C374.719 351.858 375.928 352.359 376.819 353.251C377.711 354.143 378.213 355.351 378.215 356.612V377.367C378.215 378.629 377.714 379.839 376.822 380.731C375.93 381.623 374.72 382.124 373.458 382.124C372.197 382.124 370.987 381.623 370.095 380.731C369.203 379.839 368.702 378.629 368.702 377.367V356.612C368.704 355.351 369.206 354.143 370.098 353.251C370.989 352.359 372.198 351.858 373.458 351.855Z" fill="white"/>
<path d="M278.931 349.538L290.615 332.389C290.966 331.873 291.416 331.431 291.938 331.088C292.461 330.746 293.045 330.51 293.659 330.393C294.272 330.277 294.903 330.283 295.514 330.41C296.125 330.537 296.706 330.783 297.222 331.135C297.738 331.486 298.18 331.936 298.522 332.458C298.865 332.981 299.101 333.565 299.217 334.179C299.334 334.792 299.328 335.423 299.201 336.034C299.074 336.645 298.827 337.226 298.476 337.742L286.792 354.891C286.327 355.574 285.691 356.124 284.948 356.487C284.205 356.849 283.38 357.012 282.555 356.958C281.18 356.007 279.813 355.029 278.473 354.026C278.169 353.299 278.052 352.508 278.132 351.724C278.212 350.94 278.487 350.189 278.931 349.538Z" fill="white"/>
<path d="M227.991 269.63L247.224 261.821C248.393 261.346 249.702 261.355 250.864 261.846C252.026 262.337 252.945 263.269 253.42 264.437C253.894 265.606 253.886 266.915 253.395 268.077C252.905 269.239 251.973 270.158 250.805 270.633L231.571 278.442C230.403 278.916 229.094 278.906 227.933 278.415C226.772 277.924 225.853 276.992 225.379 275.825C224.905 274.657 224.913 273.348 225.403 272.187C225.893 271.025 226.824 270.105 227.991 269.63V269.63Z" fill="white"/>
<path d="M450.556 331.135C451.598 330.425 452.88 330.159 454.119 330.394C455.358 330.629 456.452 331.346 457.163 332.389L468.846 349.538C469.291 350.188 469.565 350.94 469.645 351.724C469.726 352.508 469.608 353.299 469.304 354.026C467.964 355.029 466.598 356.006 465.223 356.958C464.397 357.012 463.573 356.849 462.829 356.487C462.086 356.124 461.451 355.574 460.985 354.891L449.301 337.742C448.95 337.226 448.704 336.645 448.576 336.034C448.449 335.422 448.444 334.792 448.56 334.178C448.676 333.565 448.913 332.98 449.255 332.458C449.597 331.936 450.039 331.486 450.556 331.135Z" fill="white"/>
<path d="M494.347 264.432C494.582 263.854 494.929 263.328 495.367 262.884C495.806 262.44 496.327 262.086 496.902 261.843C497.477 261.601 498.094 261.474 498.718 261.47C499.343 261.466 499.961 261.585 500.539 261.821L519.773 269.63C520.94 270.105 521.871 271.025 522.361 272.187C522.851 273.348 522.859 274.657 522.385 275.825C521.91 276.992 520.991 277.924 519.83 278.415C518.669 278.906 517.361 278.916 516.192 278.442L496.959 270.633C495.792 270.155 494.862 269.234 494.373 268.072C493.883 266.91 493.874 265.601 494.347 264.432Z" fill="white"/>
<path d="M367.282 223.234C366.843 225.834 367.453 228.502 368.979 230.652C370.504 232.803 372.82 234.261 375.419 234.706L459.823 249.063C461.11 249.282 462.428 249.245 463.702 248.955C464.975 248.664 466.179 248.126 467.244 247.37C468.309 246.615 469.215 245.657 469.91 244.551C470.605 243.445 471.076 242.214 471.295 240.926C471.514 239.639 471.477 238.321 471.187 237.047C470.896 235.774 470.358 234.57 469.602 233.505C468.847 232.44 467.889 231.534 466.783 230.839C465.677 230.143 464.446 229.673 463.158 229.454L378.755 215.097C376.155 214.658 373.487 215.268 371.336 216.793C369.185 218.319 367.728 220.635 367.282 223.234Z" fill="#3F3D56"/>
<path d="M278.451 316.746C279.664 317.966 281.311 318.654 283.03 318.661C284.75 318.668 286.402 317.992 287.624 316.782L378.483 226.636C379.702 225.424 380.39 223.777 380.396 222.058C380.402 220.339 379.726 218.688 378.515 217.468C377.304 216.247 375.658 215.557 373.939 215.55C372.22 215.542 370.568 216.217 369.346 217.427L278.487 307.574C277.268 308.786 276.579 310.433 276.573 312.152C276.566 313.872 277.242 315.524 278.451 316.746Z" fill="#3F3D56"/>
<path d="M373.888 236.836C367.679 236.836 362.646 231.803 362.646 225.594C362.646 219.385 367.679 214.351 373.888 214.351C380.097 214.351 385.131 219.385 385.131 225.594C385.131 231.803 380.097 236.836 373.888 236.836Z" fill="#CCCCCC"/>
<path d="M451.326 30.6487C468.584 57.7798 494.914 75.7852 527.386 87.6138C528.028 88.0944 528.758 88.4438 529.534 88.6423C530.311 88.8407 531.119 88.8842 531.913 88.7703C532.706 88.6564 533.47 88.3874 534.159 87.9784C534.849 87.5695 535.451 87.0288 535.931 86.3872C553.57 62.8364 549.587 29.1776 526.308 11.1821C520.68 6.83895 514.245 3.65704 507.377 1.82108C500.51 -0.0148858 493.345 -0.468326 486.301 0.487091C479.256 1.44251 472.472 3.78774 466.341 7.38665C460.21 10.9855 454.856 15.7664 450.588 21.4517L450.1 22.1031C449.619 22.7448 449.27 23.4748 449.071 24.2515C448.873 25.0282 448.829 25.8364 448.943 26.63C449.057 27.4235 449.326 28.1868 449.735 28.8764C450.144 29.5659 450.685 30.1682 451.326 30.6487Z" fill="#E6E6E6"/>
<path d="M297.186 21.4516C292.918 15.7663 287.564 10.9854 281.433 7.38652C275.302 3.78761 268.518 1.44239 261.473 0.486973C254.428 -0.468445 247.264 -0.0150173 240.396 1.82094C233.529 3.6569 227.094 6.83882 221.466 11.182C198.187 29.1775 194.204 62.8363 211.842 86.387C212.323 87.0287 212.925 87.5694 213.615 87.9783C214.304 88.3872 215.068 88.6563 215.861 88.7702C216.655 88.8841 217.463 88.8406 218.24 88.6422C219.016 88.4437 219.746 88.0942 220.388 87.6137C250.533 76.0725 275.253 56.1006 296.447 30.6486C297.743 29.678 298.601 28.2324 298.831 26.6298C299.061 25.0272 298.645 23.3989 297.674 22.103L297.186 21.4516Z" fill="#E6E6E6"/>
<path d="M304.755 386.68C305.854 387.297 306.664 388.325 307.006 389.539C307.349 390.752 307.197 392.052 306.583 393.153L279.132 442.207C278.516 443.308 277.488 444.118 276.274 444.461C275.06 444.804 273.76 444.65 272.659 444.034C271.559 443.418 270.748 442.39 270.405 441.177C270.062 439.963 270.215 438.663 270.831 437.562L298.281 388.508C298.899 387.409 299.927 386.599 301.14 386.256C302.354 385.914 303.654 386.066 304.755 386.68Z" fill="#E6E6E6"/>
<path d="M449.497 388.508L476.948 437.562C477.563 438.663 477.716 439.963 477.374 441.177C477.031 442.39 476.22 443.418 475.119 444.034C474.018 444.65 472.718 444.804 471.504 444.461C470.29 444.118 469.262 443.308 468.646 442.207L441.196 393.153C440.89 392.608 440.696 392.008 440.622 391.388C440.549 390.767 440.598 390.139 440.768 389.537C440.938 388.936 441.224 388.374 441.611 387.884C441.998 387.393 442.478 386.984 443.023 386.679C443.568 386.374 444.168 386.179 444.789 386.106C445.409 386.033 446.038 386.082 446.639 386.252C447.24 386.422 447.802 386.709 448.292 387.096C448.783 387.483 449.192 387.963 449.497 388.508H449.497Z" fill="#E6E6E6"/>
<path d="M273.558 454.767C265.439 454.767 258.856 448.185 258.856 440.065C258.856 431.946 265.439 425.364 273.558 425.364C281.678 425.364 288.26 431.946 288.26 440.065C288.26 448.185 281.678 454.767 273.558 454.767Z" fill="#E6E6E6"/>
<path d="M263.179 78.577C255.06 78.577 248.477 71.9948 248.477 63.8753C248.477 55.7558 255.06 49.1736 263.179 49.1736C271.299 49.1736 277.881 55.7558 277.881 63.8753C277.881 71.9948 271.299 78.577 263.179 78.577Z" fill="#E6E6E6"/>
<path d="M374.755 43.9849C366.636 43.9849 360.054 37.4027 360.054 29.2832C360.054 21.1637 366.636 14.5815 374.755 14.5815C382.875 14.5815 389.457 21.1637 389.457 29.2832C389.457 37.4027 382.875 43.9849 374.755 43.9849Z" fill="#E6E6E6"/>
<path d="M481.123 76.8476C473.003 76.8476 466.421 70.2654 466.421 62.1459C466.421 54.0264 473.003 47.4442 481.123 47.4442C489.242 47.4442 495.824 54.0264 495.824 62.1459C495.824 70.2654 489.242 76.8476 481.123 76.8476Z" fill="#E6E6E6"/>
<path d="M471.613 454.767C463.493 454.767 456.911 448.185 456.911 440.065C456.911 431.946 463.493 425.364 471.613 425.364C479.732 425.364 486.314 431.946 486.314 440.065C486.314 448.185 479.732 454.767 471.613 454.767Z" fill="#E6E6E6"/>
<path d="M218.463 513.119L217.831 514.718H218.463V513.119Z" fill="#2F2E41"/>
<path d="M115.007 525.789L126.866 525.788L132.508 480.045L115.005 480.046L115.007 525.789Z" fill="#FFB6B6"/>
<path d="M155.639 525.52C156.008 526.142 156.203 528.149 156.203 528.872C156.203 531.095 154.401 532.897 152.178 532.897H115.452C113.935 532.897 112.706 531.668 112.706 530.152V528.622C112.706 528.622 110.889 524.027 114.63 518.363C114.63 518.363 119.278 522.798 126.225 515.851L128.274 512.14L143.102 522.985L151.321 523.997C153.12 524.218 154.714 523.962 155.639 525.52H155.639Z" fill="#2F2E41"/>
<path d="M5.49835 502.386L15.5998 508.599L44.373 472.594L29.4646 463.424L5.49835 502.386Z" fill="#FFB6B6"/>
<path d="M40.2458 523.446C40.2345 524.17 39.3487 525.981 38.9698 526.597C37.805 528.49 35.3259 529.081 33.4325 527.916L2.15152 508.673C0.859886 507.878 0.456902 506.187 1.25152 504.895L2.0527 503.593C2.0527 503.593 2.91323 498.727 9.06707 495.862C9.06707 495.862 10.7028 502.076 20.2594 499.799L23.9487 497.711L30.8962 514.718L37.3667 519.886C38.7823 521.017 40.2741 521.635 40.2457 523.446L40.2458 523.446L40.2458 523.446Z" fill="#2F2E41"/>
<path d="M80.0365 311.841C80.6235 309.281 80.5788 306.795 80.0283 304.735L87.1738 280.708L75.5397 277.553L69.5439 302.267C68.1536 303.869 67.0322 306.08 66.4452 308.641C65.1042 314.491 67.0596 319.949 70.8127 320.833C74.5659 321.717 78.6955 317.691 80.0366 311.841L80.0365 311.841V311.841Z" fill="#FFB6B6"/>
<path d="M146.232 151.679C146.232 151.679 127.483 143.518 117.014 155.311C107.485 166.046 88.1411 198.346 90.1276 201.489L71.0838 291.473L85.1997 295.822L122.645 192.319L146.232 151.679H146.232V151.679Z" fill="#3F3D56"/>
<path d="M166.881 285.033L157.221 397.736L133.17 510.5L108.67 511.5L120.995 385.661L113.604 284.07L166.881 285.033Z" fill="#2F2E41"/>
<path d="M164.885 309.488L104.716 405.274L28.6699 500L7.58643 486.431L78.0325 377.958C87.6829 335.621 98.3698 296.431 117.955 284.249L164.885 309.488Z" fill="#2F2E41"/>
<path d="M161.373 309.956C164.195 309.956 166.928 308.962 169.156 307.073C172.146 304.537 173.704 300.84 173.43 296.93L168.181 246.572L170.186 191.581L170.173 191.521L163.942 161.638C163.88 160.689 163.681 159.683 163.36 158.718L154.156 131.045C152.5 126.068 147.865 122.723 142.619 122.723H134.48C130.405 122.723 126.623 124.747 124.363 128.138L117.238 138.825C116.764 139.535 116.365 140.298 116.05 141.091L100.321 180.79C99.8217 182.05 99.5376 183.376 99.477 184.73L94.5971 294.905C94.434 298.563 95.9057 302.063 98.6333 304.509C101.344 306.94 104.961 308.015 108.548 307.462C129.088 304.29 147.065 306.884 158.53 309.619C159.477 309.844 160.43 309.956 161.373 309.956V309.956L161.373 309.956Z" fill="#3F3D56"/>
<path d="M163.66 200.506L177.346 190.04C177.346 190.04 170.906 132.884 154 132.884C137.095 132.884 128.239 123.224 128.239 123.224C128.239 123.224 67.8626 207.751 84.7681 217.411C101.674 227.071 125.019 222.241 125.019 222.241L133.242 150.032C134.252 146.215 139.506 145.802 141.1 149.414L163.66 200.506L163.66 200.506L163.66 200.506Z" fill="#3F3D56"/>
<path d="M141.147 120.261C128.223 120.261 117.747 109.784 117.747 96.8604C117.747 83.9368 128.223 73.4602 141.147 73.4602C154.07 73.4602 164.547 83.9368 164.547 96.8604C164.547 109.784 154.07 120.261 141.147 120.261Z" fill="#FFB6B6"/>
<path d="M122.616 114.55C124.727 115.338 127.963 116.564 130.074 117.352C132.042 113.427 129.63 111.391 129.38 107.008C129.297 105.545 129.086 104.081 129.207 102.62C129.328 101.16 129.829 99.6615 130.931 98.6953C132.616 97.2174 135.422 97.4577 137.053 98.9949C138.684 100.532 139.149 103.072 138.483 105.212C144.899 102.438 149.044 95.1618 148.158 88.2283C150.074 87.4772 152.038 86.716 154.095 86.6585C156.153 86.601 158.357 87.3861 159.453 89.1279C160.222 90.3493 160.375 91.8997 161.238 93.0566C162.64 94.9364 165.669 95.082 167.531 93.6561C169.392 92.2302 170.104 89.6389 169.707 87.3278C169.31 85.0168 172.199 80.3005 170.582 78.6024C169.479 77.444 164.004 79.0854 162.773 78.0635C161.65 77.1312 160.523 76.1958 159.285 75.4224C157.715 74.4406 155.975 73.7296 154.166 73.3301C152.455 72.9522 150.696 72.853 148.947 72.7549C147.17 72.6554 144.713 69.1186 142.937 69.0191C137.708 68.726 133.034 71.8838 128.017 73.3873C122.999 74.8907 119.843 79.208 117.065 83.6489C113.109 89.9746 114.454 96.9058 117.178 102.954C117.851 104.449 115.592 106.021 115.927 107.626C116.237 109.118 117.635 110.199 117.962 111.687C118.242 112.96 119.894 111.486 120.288 112.728C120.628 113.8 121.63 114.557 122.702 114.899C123.773 115.241 124.92 115.234 126.045 115.224" fill="#2F2E41"/>
<path d="M127.639 122.623L126.814 123.224L124.735 124.737C118.484 129.288 119.065 138.789 125.825 142.544L134.277 129.043" fill="#3F3D56"/>
<path d="M245.652 150.472C243.541 151.865 241.92 153.618 240.935 155.407L219.994 167.404L225.994 177.201L246.59 163.977C248.623 163.775 250.873 162.974 252.983 161.582C257.804 158.4 260.071 153.334 258.046 150.266C256.022 147.199 250.472 147.291 245.652 150.472H245.652L245.652 150.472Z" fill="#FFB6B6"/>
<path d="M147.126 137.826C133.772 129.636 120.352 148.391 132.226 158.61L132.266 158.644L179.709 203.266L236.486 175.228L230.872 160.09L186.884 177.515L153.886 143.259C151.589 140.96 149.329 139.177 147.126 137.826H147.126Z" fill="#3F3D56"/>
<path d="M89.1638 127.877C91.6839 100.824 104.45 98.7772 110.791 101.325C118.56 82.0142 134.123 72.6554 145.38 69.0359C88.7111 57.0257 83.3023 100.94 88.0649 127.804C88.4319 127.771 88.803 127.796 89.1638 127.877Z" fill="#C41B1B"/>
<path d="M109.358 105.282C109.068 106.178 109.471 107.147 110.298 107.599L112.209 108.641C113.326 109.25 114.721 108.679 115.161 107.485C119.135 96.678 130.656 78.3759 151.651 74.2701C152.987 74.0089 153.774 72.5629 153.185 71.3357L151.963 68.7901C151.593 68.0186 150.77 67.554 149.93 67.7167C148.621 67.9699 147.51 68.3509 145.38 69.0359C134.123 72.6554 118.56 82.0142 110.791 101.325C110.278 102.6 109.799 103.919 109.358 105.282Z" fill="white"/>
<path d="M90.8793 133.825C92.26 132.444 92.26 130.206 90.8793 128.825C90.3898 128.336 89.7925 128.02 89.1638 127.877C88.803 127.796 88.4319 127.771 88.0649 127.804C87.2676 127.874 86.4896 128.215 85.8793 128.825C84.4986 130.206 84.4986 132.444 85.8793 133.825C87.26 135.206 89.4986 135.206 90.8793 133.825Z" fill="white"/>
</svg>
