<svg width="21" height="21" viewBox="0 0 21 21" fill="none" xmlns="http://www.w3.org/2000/svg">
<path d="M13.4344 10.6277C13.4344 11.2606 13.2467 11.8793 12.8951 12.4055C12.5435 12.9317 12.0437 13.3419 11.459 13.5841C10.8742 13.8263 10.2308 13.8897 9.61009 13.7662C8.98935 13.6427 8.41916 13.338 7.97163 12.8904C7.52411 12.4429 7.21933 11.8727 7.09586 11.252C6.97239 10.6312 7.03576 9.98782 7.27796 9.4031C7.52016 8.81837 7.93031 8.3186 8.45655 7.96698C8.98279 7.61536 9.60147 7.42769 10.2344 7.42769C11.0828 7.42866 11.8961 7.76611 12.496 8.36602C13.096 8.96592 13.4334 9.77929 13.4344 10.6277ZM20.2344 6.22769V15.0277C20.2327 16.5124 19.6422 17.9358 18.5923 18.9856C17.5425 20.0355 16.1191 20.626 14.6344 20.6277H5.83437C4.34968 20.626 2.92627 20.0355 1.87643 18.9856C0.826595 17.9358 0.236056 16.5124 0.234375 15.0277V6.22769C0.236056 4.74299 0.826595 3.31958 1.87643 2.26974C2.92627 1.21991 4.34968 0.629367 5.83437 0.627686H14.6344C16.1191 0.629367 17.5425 1.21991 18.5923 2.26974C19.6422 3.31958 20.2327 4.74299 20.2344 6.22769ZM15.0344 10.6277C15.0344 9.67834 14.7529 8.7503 14.2254 7.96095C13.698 7.17159 12.9483 6.55637 12.0713 6.19306C11.1942 5.82976 10.2291 5.73471 9.29794 5.91992C8.36683 6.10513 7.51155 6.56228 6.84026 7.23357C6.16897 7.90487 5.71182 8.76014 5.52661 9.69125C5.3414 10.6224 5.43645 11.5875 5.79975 12.4646C6.16305 13.3417 6.77828 14.0913 7.56764 14.6187C8.35699 15.1462 9.28502 15.4277 10.2344 15.4277C11.507 15.4262 12.727 14.9201 13.6269 14.0202C14.5268 13.1203 15.0329 11.9003 15.0344 10.6277ZM16.6344 5.42769C16.6344 5.19035 16.564 4.95834 16.4321 4.761C16.3003 4.56366 16.1129 4.40986 15.8936 4.31903C15.6743 4.2282 15.433 4.20444 15.2003 4.25074C14.9675 4.29705 14.7537 4.41133 14.5858 4.57916C14.418 4.74698 14.3037 4.9608 14.2574 5.19358C14.2111 5.42635 14.2349 5.66763 14.3257 5.88691C14.4165 6.10618 14.5704 6.29359 14.7677 6.42545C14.965 6.55731 15.197 6.62769 15.4344 6.62769C15.7526 6.62769 16.0579 6.50126 16.2829 6.27621C16.5079 6.05117 16.6344 5.74595 16.6344 5.42769Z" fill="white"/>
</svg>