<svg width="450" height="525" viewBox="0 0 450 525" fill="none" xmlns="http://www.w3.org/2000/svg">
<g clip-path="url(#clip0_141_693)">
<path d="M55.8239 10.3667C43.8918 10.3667 32.4485 15.1094 24.0112 23.5513C15.574 31.9933 10.834 43.4431 10.834 55.3819C10.834 67.3207 15.574 78.7705 24.0112 87.2125C32.4485 95.6545 43.8918 100.397 55.8239 100.397H391.106C403.038 100.397 414.481 95.6545 422.919 87.2125C431.356 78.7705 436.096 67.3207 436.096 55.3819C436.096 43.4431 431.356 31.9933 422.919 23.5513C414.481 15.1094 403.038 10.3667 391.106 10.3667H55.8239Z" fill="#E5E5E5"/>
<path d="M55.8243 19.4771C46.307 19.4771 37.1796 23.2599 30.4499 29.9934C23.7202 36.7269 19.9395 45.8595 19.9395 55.3821C19.9395 64.9047 23.7202 74.0372 30.4499 80.7707C37.1796 87.5042 46.307 91.2871 55.8243 91.2871H391.106C400.624 91.2871 409.751 87.5042 416.481 80.7707C423.21 74.0372 426.991 64.9047 426.991 55.3821C426.991 45.8595 423.21 36.7269 416.481 29.9934C409.751 23.2599 400.624 19.4771 391.106 19.4771H55.8243Z" fill="white"/>
<path d="M129.883 76.8512H63.1744C62.9625 76.8526 62.7523 76.8121 62.5561 76.7319C62.3599 76.6518 62.1815 76.5336 62.0311 76.3842C61.8807 76.2347 61.7614 76.057 61.68 75.8612C61.5986 75.6655 61.5566 75.4555 61.5566 75.2435C61.5566 75.0314 61.5986 74.8215 61.68 74.6257C61.7614 74.4299 61.8807 74.2522 62.0311 74.1028C62.1815 73.9533 62.3599 73.8352 62.5561 73.755C62.7523 73.6749 62.9625 73.6343 63.1744 73.6358H129.883C130.307 73.6387 130.713 73.8093 131.012 74.1105C131.311 74.4117 131.479 74.819 131.479 75.2435C131.479 75.668 131.311 76.0752 131.012 76.3764C130.713 76.6776 130.307 76.8483 129.883 76.8512Z" fill="#6C63FF"/>
<path d="M214.508 77.3868H147.799C147.587 77.3882 147.377 77.3477 147.181 77.2676C146.985 77.1874 146.807 77.0692 146.656 76.9198C146.506 76.7704 146.386 76.5927 146.305 76.3969C146.224 76.2011 146.182 75.9912 146.182 75.7791C146.182 75.5671 146.224 75.3571 146.305 75.1613C146.386 74.9656 146.506 74.7878 146.656 74.6384C146.807 74.489 146.985 74.3708 147.181 74.2907C147.377 74.2105 147.587 74.17 147.799 74.1714H214.508C214.72 74.17 214.93 74.2105 215.126 74.2907C215.323 74.3708 215.501 74.489 215.651 74.6384C215.802 74.7878 215.921 74.9656 216.002 75.1613C216.084 75.3571 216.126 75.5671 216.126 75.7791C216.126 75.9912 216.084 76.2011 216.002 76.3969C215.921 76.5927 215.802 76.7704 215.651 76.9198C215.501 77.0692 215.323 77.1874 215.126 77.2676C214.93 77.3477 214.72 77.3882 214.508 77.3868Z" fill="#6C63FF"/>
<path d="M299.131 77.9229H232.422C231.998 77.92 231.592 77.7494 231.293 77.4482C230.994 77.147 230.826 76.7397 230.826 76.3152C230.826 75.8907 230.994 75.4835 231.293 75.1823C231.592 74.8811 231.998 74.7104 232.422 74.7076H299.131C299.343 74.7061 299.553 74.7466 299.749 74.8268C299.945 74.9069 300.124 75.0251 300.274 75.1745C300.424 75.324 300.544 75.5017 300.625 75.6975C300.707 75.8932 300.748 76.1032 300.748 76.3152C300.748 76.5273 300.707 76.7373 300.625 76.933C300.544 77.1288 300.424 77.3065 300.274 77.4559C300.124 77.6054 299.945 77.7236 299.749 77.8037C299.553 77.8838 299.343 77.9244 299.131 77.9229H299.131Z" fill="#6C63FF"/>
<path d="M383.756 78.4585H317.047C316.623 78.4556 316.217 78.285 315.918 77.9838C315.619 77.6826 315.451 77.2753 315.451 76.8508C315.451 76.4263 315.619 76.0191 315.918 75.7179C316.217 75.4167 316.623 75.2461 317.047 75.2432H383.756C384.18 75.2461 384.586 75.4167 384.885 75.7179C385.184 76.0191 385.352 76.4263 385.352 76.8508C385.352 77.2753 385.184 77.6826 384.885 77.9838C384.586 78.285 384.18 78.4556 383.756 78.4585Z" fill="#6C63FF"/>
<path d="M96.3827 62.0552C103.23 62.0552 108.781 56.5012 108.781 49.6499C108.781 42.7987 103.23 37.2446 96.3827 37.2446C89.5353 37.2446 83.9844 42.7987 83.9844 49.6499C83.9844 56.5012 89.5353 62.0552 96.3827 62.0552Z" fill="#6C63FF"/>
<path d="M181.517 62.0552C188.365 62.0552 193.916 56.5012 193.916 49.6499C193.916 42.7987 188.365 37.2446 181.517 37.2446C174.67 37.2446 169.119 42.7987 169.119 49.6499C169.119 56.5012 174.67 62.0552 181.517 62.0552Z" fill="#6C63FF"/>
<path d="M266.652 62.0552C273.5 62.0552 279.051 56.5012 279.051 49.6499C279.051 42.7987 273.5 37.2446 266.652 37.2446C259.805 37.2446 254.254 42.7987 254.254 49.6499C254.254 56.5012 259.805 62.0552 266.652 62.0552Z" fill="#6C63FF"/>
<path d="M351.787 62.0552C358.634 62.0552 364.185 56.5012 364.185 49.6499C364.185 42.7987 358.634 37.2446 351.787 37.2446C344.94 37.2446 339.389 42.7987 339.389 49.6499C339.389 56.5012 344.94 62.0552 351.787 62.0552Z" fill="#6C63FF"/>
<path d="M253.411 100.322C253.452 101.42 253.732 102.496 254.233 103.474C254.734 104.452 255.444 105.308 256.311 105.982C257.179 106.656 258.183 107.131 259.254 107.375C260.325 107.618 261.436 107.624 262.509 107.391L276.404 130.198L282.318 117.642L268.217 97.9089C267.706 96.1307 266.562 94.6016 265 93.6113C263.438 92.6211 261.568 92.2384 259.743 92.5358C257.918 92.8333 256.265 93.7902 255.098 95.2253C253.932 96.6604 253.331 98.4739 253.411 100.322H253.411Z" fill="#FFB6B6"/>
<path d="M357.682 165.687L309.798 139.699L294.694 125.521C294.694 125.521 288.128 123.762 290.545 121.625C292.962 119.489 286.075 117.429 286.075 117.429L277.967 109.818L266.445 117.975L269.78 123.146C269.78 123.146 269.55 131.708 274.238 130.061C278.925 128.413 277.754 135.514 277.754 135.514L305.732 178.909L357.682 165.687Z" fill="#3F3D56"/>
<path d="M357.83 506.551H348.104L343.477 469.019H357.83V506.551Z" fill="#FFB6B6"/>
<path d="M362.963 523.41H355.989L354.744 516.822L351.556 523.41H333.059C332.172 523.41 331.309 523.127 330.594 522.601C329.88 522.075 329.353 521.335 329.089 520.488C328.825 519.641 328.839 518.732 329.128 517.893C329.417 517.055 329.966 516.33 330.696 515.826L345.467 505.619V498.958L361.004 499.886L362.963 523.41Z" fill="#2F2E41"/>
<path d="M280.05 506.551H270.325L265.697 469.019H280.05V506.551Z" fill="#FFB6B6"/>
<path d="M285.184 523.41H278.21L276.965 516.822L273.776 523.41H255.279C254.393 523.41 253.529 523.127 252.815 522.601C252.101 522.075 251.573 521.335 251.309 520.488C251.046 519.641 251.059 518.732 251.348 517.893C251.638 517.055 252.187 516.33 252.917 515.826L267.688 505.619V498.958L283.225 499.886L285.184 523.41Z" fill="#2F2E41"/>
<path d="M347.511 222.702H298.426V278.614H347.511V222.702Z" fill="#FFB6B6"/>
<path d="M299.559 250.28L291.252 260.103L276.904 290.326L240.751 376.393L233.105 394.595L239.28 426.772C239.28 426.772 240.279 449.442 240.279 453.152C240.279 460.708 246.595 464.895 246.595 464.895L251.229 489.042L296.16 487.153C296.16 487.153 294.593 460.536 285.182 453.822C275.771 447.108 271.446 412.116 271.446 412.116L266.332 396.591L316.172 337.478L316.494 358.141L316.649 368.142C316.649 368.142 309.351 433.193 317.859 445.817C326.367 458.441 318.032 456.956 318.032 456.956L318.437 482.997L371.676 483.375L359.93 408.401C359.93 408.401 353.967 403.69 357.157 398.953C360.348 394.217 354.065 388.417 354.065 388.417L356.883 329.887C356.883 329.887 353.763 319.777 357.433 318.463C361.103 317.149 357.915 308.455 357.915 308.455L358.46 297.126L347.511 261.992L299.559 250.28Z" fill="#2F2E41"/>
<path d="M348.266 222.702L353.552 206.835L357.328 201.546L358.838 186.434C358.838 145.633 349.743 152.427 349.743 152.427L344.49 138.077L320.326 137.322L304.845 152.055L292.008 156.589L286.98 182.724L296.161 210.613L298.426 225.724C294.105 233.707 294.47 229.931 298.049 235.924L340.715 247.636C355.818 252.925 355.818 239.324 352.789 235.924C349.761 232.524 348.266 222.702 348.266 222.702Z" fill="#3F3D56"/>
<path d="M329.286 132.25C341.659 132.25 351.688 122.215 351.688 109.836C351.688 97.4566 341.659 87.4214 329.286 87.4214C316.914 87.4214 306.885 97.4566 306.885 109.836C306.885 122.215 316.914 132.25 329.286 132.25Z" fill="#FFB6B6"/>
<path d="M359.194 139.755C359.405 140.111 359.533 140.51 359.568 140.923C359.603 141.336 359.545 141.751 359.398 142.138C359.25 142.525 359.018 142.874 358.717 143.159C358.416 143.443 358.055 143.656 357.661 143.782C354.655 144.779 352.805 147.688 350.645 150.015C348.493 152.335 345.027 154.262 342.278 152.682C339.537 151.111 339.348 147.099 337.053 144.923C334.817 142.807 331.102 143.064 328.474 144.673L328.395 144.722C327.942 145.018 327.411 145.174 326.87 145.172C326.328 145.169 325.8 145.008 325.349 144.708C324.898 144.408 324.545 143.982 324.333 143.483C324.121 142.985 324.06 142.435 324.158 141.902C325.078 137.002 325.999 132.103 326.918 127.204C324.502 133.03 320.992 138.339 316.58 142.845C315.365 144.248 313.825 145.332 312.095 146.003C310.524 146.502 308.999 144.877 307.473 145.172C311.264 141.855 324.011 120.593 321.731 106.381C319.05 106.683 316.369 106.985 313.688 107.287C313.398 106.018 312.778 104.848 311.891 103.895C311.999 105.13 311.842 106.375 311.43 107.544C310.313 107.673 309.187 107.794 308.07 107.922C306.514 108.096 304.823 108.247 303.486 107.431C301.258 106.071 301.19 102.852 301.825 100.313C303.682 92.9315 309.316 86.7585 316.21 83.5246C323.105 80.2983 325.144 87.4838 332.408 85.1869C346.756 80.6535 357.751 88.4057 361.625 102.792C364.88 114.858 362.516 127.665 359.194 139.755Z" fill="#2F2E41"/>
<path d="M421.212 523.898H393.782L393.664 523.684C393.313 523.047 392.975 522.373 392.658 521.68C389.833 515.627 388.639 508.705 387.585 502.598L386.791 497.994C386.695 497.437 386.768 496.863 386.999 496.347C387.231 495.831 387.611 495.396 388.091 495.097C388.572 494.799 389.13 494.65 389.695 494.671C390.26 494.692 390.806 494.881 391.263 495.214C395.432 498.249 399.602 501.281 403.774 504.31C405.354 505.46 407.158 506.791 408.885 508.229C409.052 507.419 409.227 506.607 409.401 505.806C409.521 505.253 409.804 504.748 410.212 504.356C410.621 503.965 411.137 503.704 411.694 503.607C412.252 503.511 412.825 503.583 413.342 503.815C413.858 504.046 414.293 504.427 414.592 504.908L417.802 510.067C420.142 513.834 422.208 517.547 421.787 521.551C421.79 521.6 421.786 521.649 421.777 521.697C421.692 522.355 421.536 523.001 421.311 523.625L421.212 523.898Z" fill="#F0F0F0"/>
<path d="M223.466 144.363C249.258 144.363 270.166 123.443 270.166 97.6367C270.166 71.8303 249.258 50.9102 223.466 50.9102C197.674 50.9102 176.766 71.8303 176.766 97.6367C176.766 123.443 197.674 144.363 223.466 144.363Z" fill="#6C63FF"/>
<path d="M220.265 116.566C219.637 116.566 219.018 116.42 218.456 116.139C217.895 115.858 217.407 115.45 217.03 114.948L207.113 101.717C206.795 101.292 206.563 100.809 206.431 100.294C206.299 99.7794 206.27 99.2438 206.345 98.7179C206.42 98.1919 206.598 97.6859 206.869 97.2288C207.139 96.7716 207.497 96.3723 207.922 96.0535C208.78 95.4098 209.858 95.1334 210.92 95.2851C211.446 95.3603 211.951 95.5383 212.408 95.809C212.865 96.0797 213.264 96.4378 213.583 96.8628L220.071 105.518L236.734 80.5086C237.329 79.6158 238.254 78.9961 239.306 78.7856C240.357 78.5752 241.449 78.7913 242.342 79.3865C243.234 79.9817 243.854 80.9072 244.064 81.9594C244.274 83.0116 244.058 84.1043 243.463 84.9971L223.629 114.765C223.271 115.303 222.788 115.747 222.222 116.061C221.656 116.374 221.024 116.547 220.377 116.565C220.34 116.566 220.302 116.566 220.265 116.566Z" fill="white"/>
<path d="M212.081 157.391L183.409 133.164C182.429 132.334 181.818 131.149 181.711 129.869C181.603 128.589 182.007 127.318 182.834 126.336L188.111 120.084C188.941 119.103 190.125 118.492 191.404 118.384C192.684 118.276 193.954 118.68 194.936 119.508L223.607 143.735C224.587 144.564 225.198 145.75 225.306 147.03C225.414 148.31 225.01 149.58 224.182 150.563L218.905 156.815C218.076 157.796 216.891 158.407 215.612 158.515C214.333 158.623 213.063 158.219 212.081 157.391Z" fill="#3F3D56"/>
<path d="M184.915 126.84C184.47 127.369 184.252 128.054 184.31 128.744C184.368 129.434 184.697 130.072 185.225 130.52L213.897 154.746C214.426 155.192 215.11 155.41 215.8 155.352C216.489 155.294 217.128 154.964 217.575 154.436L222.852 148.184C223.297 147.654 223.515 146.97 223.457 146.28C223.399 145.59 223.07 144.951 222.542 144.504L193.87 120.278C193.341 119.832 192.657 119.614 191.967 119.672C191.278 119.73 190.639 120.059 190.192 120.588L184.915 126.84Z" fill="white"/>
<path d="M201.746 136.258C201.647 136.397 201.516 136.511 201.365 136.592C201.214 136.672 201.046 136.715 200.875 136.719L196.37 136.823C196.225 136.826 196.081 136.801 195.946 136.748C195.811 136.696 195.688 136.618 195.583 136.518C195.478 136.418 195.395 136.298 195.336 136.165C195.278 136.033 195.246 135.89 195.242 135.745C195.239 135.601 195.264 135.456 195.317 135.321C195.369 135.186 195.447 135.063 195.547 134.958C195.647 134.853 195.767 134.769 195.899 134.711C196.032 134.653 196.175 134.621 196.319 134.617L199.266 134.55L196.364 126.887C196.261 126.614 196.271 126.311 196.391 126.044C196.511 125.778 196.732 125.571 197.005 125.467C197.278 125.364 197.581 125.373 197.847 125.492C198.114 125.612 198.322 125.832 198.426 126.105L201.88 135.226C201.943 135.391 201.965 135.568 201.945 135.743C201.924 135.919 201.862 136.086 201.764 136.233L201.746 136.258Z" fill="#6C63FF"/>
<path d="M202.324 138.184C203.41 138.343 204.449 138.739 205.366 139.344C206.283 139.949 207.056 140.747 207.631 141.683C208.207 142.619 208.57 143.67 208.695 144.762C208.821 145.853 208.705 146.959 208.357 148.002L229.506 164.302L216.388 168.818L198.316 152.647C196.605 151.946 195.21 150.642 194.396 148.98C193.582 147.319 193.406 145.417 193.9 143.634C194.393 141.852 195.524 140.312 197.077 139.307C198.629 138.303 200.496 137.903 202.324 138.184L202.324 138.184Z" fill="#FFB6B6"/>
<path d="M312.429 146.243L258.282 179.554C258.282 179.554 236.45 171.471 240.717 167.73C244.983 163.988 231.401 161.459 231.401 161.459L216.396 151.359L207.689 161.483C207.689 161.483 209.276 177.929 211.975 175.081C214.675 172.233 218.71 180.012 218.71 180.012C218.71 180.012 219.902 188.698 227.586 186.512C235.27 184.326 255.889 207.238 255.889 207.238L322.528 182.37L312.429 146.243Z" fill="#3F3D56"/>
<path d="M449.154 524.086H1.28935C1.1389 524.085 0.994769 523.977 0.888541 523.785C0.782313 523.594 0.722656 523.334 0.722656 523.064C0.722656 522.793 0.782313 522.534 0.888541 522.342C0.994769 522.151 1.1389 522.043 1.28935 522.042H449.154C449.305 522.042 449.45 522.15 449.556 522.341C449.663 522.533 449.723 522.793 449.723 523.064C449.723 523.335 449.663 523.595 449.556 523.786C449.45 523.978 449.305 524.086 449.154 524.086Z" fill="#CACACA"/>
</g>
<path d="M96.914 408.669C63.3336 408.669 36.0137 379.648 36.0137 343.975C36.0137 308.304 63.3336 279.283 96.914 279.283C130.494 279.283 157.814 308.304 157.814 343.975C157.814 379.648 130.494 408.669 96.914 408.669ZM96.914 295.629C72.3467 295.629 52.3599 317.317 52.3599 343.975C52.3599 370.634 72.3467 392.323 96.914 392.323C121.481 392.323 141.468 370.634 141.468 343.975C141.468 317.317 121.481 295.629 96.914 295.629Z" fill="#6C63FF"/>
<path d="M154.583 521.411H39.2428C29.0716 521.4 19.3203 517.355 12.1281 510.163C4.93594 502.97 0.890348 493.219 0.878906 483.048V369.911C0.886735 362.948 3.65642 356.272 8.58032 351.348C13.5042 346.424 20.1802 343.654 27.1437 343.646H166.682C173.646 343.654 180.322 346.424 185.246 351.348C190.17 356.272 192.939 362.948 192.947 369.911V483.048C192.936 493.219 188.89 502.97 181.698 510.163C174.506 517.355 164.755 521.4 154.583 521.411Z" fill="#3F3D56"/>
<path d="M119.39 408.009C119.393 404.014 118.331 400.09 116.313 396.641C114.295 393.193 111.395 390.345 107.91 388.39C104.426 386.435 100.483 385.445 96.4883 385.52C92.4936 385.596 88.5912 386.735 85.1831 388.82C81.775 390.905 78.9844 393.861 77.0986 397.384C75.2128 400.906 74.3 404.867 74.4543 408.86C74.6085 412.852 75.8242 416.731 77.9761 420.098C80.128 423.464 83.1383 426.196 86.6971 428.012V463.178H107.13V428.012C110.819 426.132 113.916 423.269 116.08 419.739C118.243 416.209 119.389 412.15 119.39 408.009Z" fill="white"/>
<defs>
<clipPath id="clip0_141_693">
<rect width="449" height="524" fill="white" transform="translate(0.722656 0.745605)"/>
</clipPath>
</defs>
</svg>
