<svg width="25" height="24" viewBox="0 0 25 24" fill="none" xmlns="http://www.w3.org/2000/svg">
<g clip-path="url(#clip0_348_480)">
<path d="M23.2646 20.4225L17.5796 15.5873C16.9916 15.0585 16.3631 14.8155 15.8553 14.8388C17.1971 13.2668 18.0078 11.2275 18.0078 8.99854C18.0078 4.02829 13.9781 -0.00146484 9.00781 -0.00146484C4.03756 -0.00146484 0.0078125 4.02829 0.0078125 8.99854C0.0078125 13.9688 4.03756 17.9985 9.00781 17.9985C11.2368 17.9985 13.2761 17.1878 14.8481 15.846C14.8248 16.3538 15.0678 16.9823 15.5966 17.5703L20.4318 23.2553C21.2598 24.1748 22.6121 24.2528 23.4371 23.4278C24.2621 22.6028 24.1848 21.2505 23.2646 20.4225ZM9.00856 14.9993C5.69506 14.9993 3.00856 12.3128 3.00856 8.99929C3.00856 5.68579 5.69506 2.99929 9.00856 2.99929C12.3221 2.99929 15.0086 5.68579 15.0086 8.99929C15.0086 12.3128 12.3221 14.9993 9.00856 14.9993Z" fill="#A3A6AA"/>
</g>
<defs>
<clipPath id="clip0_348_480">
<rect width="24" height="24" fill="white" transform="translate(0.0078125 -0.000732422)"/>
</clipPath>
</defs>
</svg>
