<svg width="435" height="310" viewBox="0 0 435 310" fill="none" xmlns="http://www.w3.org/2000/svg">
<g clip-path="url(#clip0_141_779)">
<path d="M364.923 309.915L364.484 309.751C364.388 309.715 354.795 306.039 350.302 297.706C345.808 289.372 348.008 279.338 348.031 279.238L348.135 278.781L348.573 278.946C348.669 278.982 358.262 282.657 362.756 290.991C367.249 299.324 365.049 309.358 365.026 309.458L364.923 309.915ZM351.021 297.318C354.82 304.364 362.401 307.976 364.321 308.8C364.687 306.742 365.832 298.418 362.036 291.379C358.241 284.34 350.657 280.723 348.736 279.896C348.371 281.956 347.226 290.279 351.021 297.318Z" fill="#E5E5E5"/>
<path d="M353.736 294.783C361.812 299.641 364.922 309.292 364.922 309.292C364.922 309.292 354.939 311.065 346.863 306.206C338.788 301.348 335.678 291.698 335.678 291.698C335.678 291.698 345.661 289.924 353.736 294.783Z" fill="#E5E5E5"/>
<path d="M434.296 157.788H190.926V19.615H434.296V157.788Z" fill="white"/>
<path d="M434.296 157.788H190.926V19.615H434.296V157.788ZM193.845 154.868H431.376V22.5341H193.845V154.868Z" fill="#E5E5E5"/>
<path d="M390.954 64.2954H234.268V68.2132H390.954V64.2954Z" fill="#3F3D56"/>
<path d="M390.954 86.6755H234.268V90.5933H390.954V86.6755Z" fill="#3F3D56"/>
<path d="M390.954 109.055H234.268V112.973H390.954V109.055Z" fill="#3F3D56"/>
<path d="M260.694 58.47H253.883V74.0387H260.694V58.47Z" fill="#6C63FF"/>
<path d="M308.86 80.9841H302.049V96.5529H308.86V80.9841Z" fill="#6C63FF"/>
<path d="M369.188 103.364H362.377V118.933H369.188V103.364Z" fill="#6C63FF"/>
<path d="M286.837 178.628H192.426V182.546H286.837V178.628Z" fill="#CBCBCB"/>
<path d="M286.837 191.764H192.426V195.682H286.837V191.764Z" fill="#CBCBCB"/>
<path d="M238.671 204.901H192.426V208.818H238.671V204.901Z" fill="#CBCBCB"/>
<path d="M283.074 233.685H254.369V204.98H283.074V233.685Z" fill="white"/>
<path d="M283.074 233.685H254.369V204.98H283.074V233.685ZM255.342 232.712H282.101V205.954H255.342V232.712Z" fill="#CBCBCB"/>
<path d="M432.924 233.685H404.219V204.98H432.924V233.685Z" fill="white"/>
<path d="M432.924 233.685H404.219V204.98H432.924V233.685ZM405.192 232.712H431.951V205.954H405.192V232.712Z" fill="#E5E5E5"/>
<path d="M267.444 223.563L264.002 219.136L266.004 217.579L267.633 219.674L273.14 213.862L274.981 215.606L267.444 223.563Z" fill="#6C63FF"/>
<path d="M432.794 178.628H338.383V182.546H432.794V178.628Z" fill="#E5E5E5"/>
<path d="M432.794 191.764H338.383V195.682H432.794V191.764Z" fill="#E5E5E5"/>
<path d="M384.628 204.901H338.383V208.818H384.628V204.901Z" fill="#E5E5E5"/>
<path d="M119.606 146.964C119.326 147.145 119.06 147.348 118.812 147.571L89.8301 140.183L87.8531 133.191L76.9102 134.796L79.2074 147.514C79.393 148.542 79.9069 149.481 80.672 150.192C81.437 150.902 82.4119 151.345 83.4503 151.455L117.292 155.019C117.843 156.18 118.735 157.147 119.85 157.789C120.964 158.432 122.247 158.72 123.529 158.615C124.811 158.51 126.03 158.017 127.025 157.202C128.02 156.387 128.744 155.289 129.099 154.053C129.454 152.817 129.425 151.502 129.014 150.283C128.604 149.064 127.832 147.999 126.802 147.229C125.771 146.46 124.531 146.022 123.246 145.975C121.961 145.927 120.691 146.272 119.607 146.964H119.606Z" fill="#FFB6B6"/>
<path d="M74.9531 141.142L82.4197 147.584L92.8657 156.588L97.4795 132.982L97.962 130.528L98.342 128.579L87.7572 110.142L78.9337 110.649L78.3306 110.685L78.3185 110.818L78.1798 112.054L76.3704 128.326L76.3282 128.718L74.9531 141.142Z" fill="#E6E6E6"/>
<path d="M123.757 302.581H131.151L134.669 274.061H123.756L123.757 302.581Z" fill="#FFB6B6"/>
<path d="M46.5579 303.184H53.9521L57.47 274.664H46.5566L46.5579 303.184Z" fill="#FFB6B6"/>
<path d="M40.6484 290.624L60.5512 293.64L89.5068 195.646L120.26 294.243L142.575 291.227L113.625 176.636V167.589L109.705 154.019L110.115 150.346L112.968 124.659L114.204 113.52L114.285 112.8C114.352 112.196 114.192 111.589 113.836 111.096C113.48 110.604 112.953 110.262 112.359 110.136L103.071 108.182H87.8929L78.9367 110.649L78.3215 110.818L78.044 110.896L78.1828 112.054L80.2816 129.653L80.3962 130.618L82.4227 147.584L82.869 151.305C65.3786 163.97 64.7755 176.636 64.7755 176.636L40.6484 290.624Z" fill="#2F2E41"/>
<path d="M97.3151 100.553C105.496 100.553 112.128 93.9206 112.128 85.7395C112.128 77.5584 105.496 70.9264 97.3151 70.9264C89.134 70.9264 82.502 77.5584 82.502 85.7395C82.502 93.9206 89.134 100.553 97.3151 100.553Z" fill="#FFB6B6"/>
<path d="M81.7565 147.901L81.209 152.087L110.512 155.92L111.06 151.734L81.7565 147.901Z" fill="#6C63FF"/>
<path d="M150.364 152.995C150.084 153.177 149.818 153.38 149.57 153.603L120.588 146.214L118.611 139.222L107.668 140.827L109.965 153.545C110.151 154.573 110.665 155.513 111.43 156.223C112.195 156.934 113.17 157.377 114.208 157.486L148.05 161.05C148.601 162.212 149.493 163.178 150.607 163.821C151.722 164.463 153.005 164.751 154.287 164.646C155.569 164.541 156.788 164.048 157.783 163.234C158.778 162.419 159.501 161.32 159.857 160.084C160.212 158.848 160.183 157.533 159.772 156.314C159.362 155.095 158.59 154.03 157.56 153.261C156.529 152.491 155.289 152.053 154.004 152.006C152.718 151.959 151.449 152.304 150.365 152.995H150.364Z" fill="#FFB6B6"/>
<path d="M105.784 113.912L110.911 109.991C112.298 109.466 114.196 110.959 114.53 112.404L121.767 141.957L106.689 152.813L104.578 149.496L105.784 113.912Z" fill="#E6E6E6"/>
<path d="M108.666 73.4752C111.436 73.1356 114.476 73.3757 116.635 75.144C118.794 76.9124 119.492 80.5889 117.447 82.4888C115.638 84.1708 112.807 83.7752 110.383 84.2535C108.294 84.7215 106.423 85.8766 105.069 87.534C103.715 89.1913 102.956 91.2551 102.914 93.3949C102.95 99.531 108.839 104.178 109.897 110.222C110.62 114.347 108.879 118.688 105.871 121.603C102.863 124.517 98.7282 126.092 94.5619 126.518C90.3956 126.944 86.1828 126.293 82.1341 125.222C78.0685 124.148 74.0656 122.622 70.6544 120.164C67.2432 117.705 64.4466 114.237 63.3513 110.177C62.2561 106.117 63.0425 101.462 65.8651 98.3441C69.0972 94.7742 74.474 93.5469 77.27 89.6254C80.4062 85.2299 79.244 78.9708 81.7807 74.2056C83.4742 71.0241 86.681 68.8541 90.0989 67.7106C93.5167 66.5671 97.1668 66.3416 100.769 66.2312C102.663 66.1709 104.614 66.1534 106.378 66.844C108.142 67.5345 109.695 69.1074 109.785 71C109.874 72.8926 108.666 73.4752 108.666 73.4752Z" fill="#2F2E41"/>
<path d="M123.451 296.53L132.297 296.002V299.792L140.707 305.6C141.122 305.887 141.435 306.299 141.599 306.776C141.764 307.253 141.772 307.771 141.622 308.253C141.471 308.735 141.171 309.156 140.764 309.455C140.358 309.754 139.866 309.915 139.361 309.915H128.83L127.015 306.167L126.307 309.915H122.336L123.451 296.53Z" fill="#2F2E41"/>
<path d="M46.2521 296.53L55.0977 296.002V299.792L63.5074 305.6C63.9228 305.887 64.2356 306.299 64.4003 306.776C64.5649 307.253 64.5726 307.771 64.4224 308.253C64.2722 308.735 63.9718 309.156 63.5652 309.455C63.1586 309.754 62.667 309.915 62.1622 309.915H51.6312L49.8161 306.167L49.1073 309.915H45.1367L46.2521 296.53Z" fill="#2F2E41"/>
</g>
<defs>
<clipPath id="clip0_141_779">
<rect width="434" height="309.915" fill="white" transform="translate(0.294922)"/>
</clipPath>
</defs>
</svg>
