<svg width="23" height="23" viewBox="0 0 23 23" fill="none" xmlns="http://www.w3.org/2000/svg">
<path d="M21.2953 13.1584C20.0988 11.1592 20.8186 8.59756 22.9023 7.43293L20.6611 3.68812C20.0211 4.05043 19.2764 4.25806 18.4818 4.25806C16.0866 4.25806 14.1454 2.37293 14.1454 0.0471191H9.66358C9.66928 0.764869 9.48399 1.49293 9.08562 2.15774C7.8891 4.15699 5.22951 4.83693 3.14289 3.67781L0.902344 7.42262C1.54729 7.77668 2.106 8.29437 2.50294 8.9585C3.69733 10.9543 2.98184 13.5118 0.905907 14.6778L3.14717 18.4226C3.78498 18.0637 4.52613 17.8589 5.31645 17.8589C7.70381 17.8589 9.64006 19.7323 9.65217 22.0471H14.134C14.1318 21.3362 14.3186 20.6171 14.7119 19.9585C15.9063 17.9627 18.5595 17.2814 20.6447 18.4329L22.886 14.6881C22.2453 14.3341 21.6901 13.8177 21.2953 13.1577V13.1584ZM11.902 15.5021C9.35215 15.5021 7.28477 13.5077 7.28477 11.0478C7.28477 8.58793 9.35215 6.59349 11.902 6.59349C14.4518 6.59349 16.5192 8.58793 16.5192 11.0478C16.5192 13.5077 14.4518 15.5021 11.902 15.5021Z" fill="white"/>
</svg>
