<svg width="76" height="67" viewBox="0 0 76 67" fill="none" xmlns="http://www.w3.org/2000/svg">
<path d="M44.0664 17.8007H64.0664V22.0864H44.0664V17.8007ZM44.0664 23.515H64.0664V27.8007H44.0664V23.515ZM44.0664 29.2293H64.0664V33.515H44.0664V29.2293Z" fill="#4EE870"/>
<path d="M30.6057 27.1555C29.518 25.2716 30.1721 22.8573 32.0664 21.7603L30.0292 18.2317C29.4471 18.573 28.7704 18.7686 28.0483 18.7686C25.8712 18.7686 24.1063 16.9922 24.1063 14.8007H20.0318C20.0372 15.4771 19.8684 16.1629 19.5063 16.7899C18.4186 18.6738 16.0007 19.3145 14.1036 18.2224L12.0664 21.751C12.6529 22.0845 13.1607 22.5727 13.5218 23.1981C14.6077 25.079 13.9573 27.4885 12.07 28.5879L14.1072 32.1165C14.6872 31.7785 15.3607 31.585 16.0791 31.585C18.2493 31.585 20.0096 33.3502 20.0209 35.5319H24.0953C24.0936 34.8623 24.2628 34.1842 24.621 33.5637C25.7069 31.6828 28.1189 31.0413 30.0147 32.1261L32.0519 28.5975C31.4692 28.2642 30.9649 27.7776 30.6057 27.1555ZM22.0664 29.3639C19.7481 29.3639 17.8688 27.4846 17.8688 25.1663C17.8688 22.8481 19.7481 20.9688 22.0664 20.9688C24.3847 20.9688 26.2639 22.8481 26.2639 25.1663C26.2639 27.4846 24.3846 29.3639 22.0664 29.3639Z" fill="#4EE870"/>
<path d="M0.566406 0.98822V47.8632H75.5664V0.98822H0.566406ZM70.8789 43.1757H5.25391V5.67572H70.8789V43.1757ZM49.7852 52.5507H26.3477L24.0039 61.9257L19.3164 66.6132H56.8164L52.1289 61.9257L49.7852 52.5507Z" fill="#6C63FF"/>
</svg>