<svg width="57" height="69" viewBox="0 0 57 69" fill="none" xmlns="http://www.w3.org/2000/svg">
<path d="M54.1667 15.5669C52.7787 13.5503 50.8427 11.1952 48.7187 8.93167C46.5947 6.66812 44.3807 4.60899 42.4867 3.13119C39.2627 0.614237 37.7007 0.32251 36.8047 0.32251H5.80469C3.04869 0.32251 0.804688 2.70957 0.804688 5.64601V63.1398C0.804688 66.0741 3.04669 68.4633 5.80469 68.4633H51.8047C54.5607 68.4633 56.8047 66.0741 56.8047 63.1398V21.6165C56.8047 20.6625 56.5307 18.9973 54.1667 15.5669ZM45.8907 11.9426C47.8087 13.9847 49.3147 15.8288 50.4267 17.3577H40.8047V7.11316C42.2407 8.29711 43.9727 9.90054 45.8907 11.9426ZM52.8047 63.1398C52.8047 63.7168 52.3467 64.2045 51.8047 64.2045H5.80469C5.26269 64.2045 4.80469 63.7168 4.80469 63.1398V5.64601C4.80469 5.06894 5.26269 4.58131 5.80469 4.58131C5.80469 4.58131 36.8027 4.58131 36.8047 4.58131V19.4871C36.8047 20.6625 37.7007 21.6165 38.8047 21.6165H52.8047V63.1398Z" fill="#DCDCDC"/>
<path d="M12.8047 4.5813H20.8047V8.8401H12.8047V4.5813Z" fill="#DCDCDC"/>
<path d="M20.8047 8.84009H28.8047V13.0989H20.8047V8.84009Z" fill="#DCDCDC"/>
<path d="M12.8047 13.0989H20.8047V17.3577H12.8047V13.0989Z" fill="#DCDCDC"/>
<path d="M20.8047 17.3577H28.8047V21.6165H20.8047V17.3577Z" fill="#DCDCDC"/>
<path d="M12.8047 21.6165H20.8047V25.8753H12.8047V21.6165Z" fill="#DCDCDC"/>
<path d="M20.8047 25.8752H28.8047V30.134H20.8047V25.8752Z" fill="#DCDCDC"/>
<path d="M12.8047 30.134H20.8047V34.3928H12.8047V30.134Z" fill="#DCDCDC"/>
<path d="M20.8047 34.3928H28.8047V38.6516H20.8047V34.3928Z" fill="#DCDCDC"/>
<path d="M12.8047 56.7515C12.8047 58.5083 14.1547 59.9456 15.8047 59.9456H25.8047C27.4547 59.9456 28.8047 58.5083 28.8047 56.7515V46.1045C28.8047 44.3478 27.4547 42.9104 25.8047 42.9104H20.8047V38.6516H12.8047V56.7515ZM24.8047 51.428V55.6868H16.8047V51.428H24.8047Z" fill="#DCDCDC"/>
</svg>
