<svg width="57" height="70" viewBox="0 0 57 70" fill="none" xmlns="http://www.w3.org/2000/svg">
<path d="M53.4772 16.105C52.0892 14.0884 50.1532 11.7333 48.0292 9.46975C45.9052 7.2062 43.6912 5.14707 41.7972 3.66927C38.5732 1.15232 37.0112 0.860596 36.1152 0.860596H5.11523C2.35923 0.860596 0.115234 3.24765 0.115234 6.18409V63.6778C0.115234 66.6122 2.35723 69.0013 5.11523 69.0013H51.1152C53.8712 69.0013 56.1152 66.6122 56.1152 63.6778V22.1546C56.1152 21.2006 55.8412 19.5354 53.4772 16.105ZM45.2012 12.4807C47.1192 14.5228 48.6252 16.3669 49.7372 17.8958H40.1152V7.65125C41.5512 8.83519 43.2832 10.4386 45.2012 12.4807ZM52.1152 63.6778C52.1152 64.2549 51.6572 64.7425 51.1152 64.7425H5.11523C4.57323 64.7425 4.11523 64.2549 4.11523 63.6778V6.18409C4.11523 5.60702 4.57323 5.11939 5.11523 5.11939C5.11523 5.11939 36.1132 5.11939 36.1152 5.11939V20.0252C36.1152 21.2006 37.0112 22.1546 38.1152 22.1546H52.1152V63.6778Z" fill="#DCDCDC"/>
<path d="M43.3832 26.8968C42.9192 26.4922 42.3112 26.3303 41.7232 26.456L21.7232 30.7148C20.7892 30.9149 20.1152 31.788 20.1152 32.8037V48.5655C18.9392 48.0225 17.5732 47.7095 16.1152 47.7095C11.6972 47.7095 8.11523 50.5693 8.11523 54.0977C8.11523 57.6261 11.6972 60.4859 16.1152 60.4859C20.5332 60.4859 24.1152 57.6261 24.1152 54.0977V38.8086L40.1152 35.4016V44.3088C38.9392 43.7658 37.5732 43.4528 36.1152 43.4528C31.6972 43.4528 28.1152 46.3126 28.1152 49.841C28.1152 53.3694 31.6972 56.2292 36.1152 56.2292C40.5332 56.2292 44.1152 53.3694 44.1152 49.841V28.547C44.1152 27.9082 43.8472 27.3056 43.3832 26.901V26.8968Z" fill="#DCDCDC"/>
</svg>
