<svg width="57" height="69" viewBox="0 0 57 69" fill="none" xmlns="http://www.w3.org/2000/svg">
<path d="M54.1569 15.6433C52.7689 13.6267 50.8329 11.2716 48.7089 9.00808C46.5849 6.74453 44.3709 4.6854 42.4769 3.2076C39.2529 0.690653 37.6909 0.398926 36.7949 0.398926H5.79492C3.03892 0.398926 0.794922 2.78598 0.794922 5.72242V63.2162C0.794922 66.1505 3.03892 68.5397 5.79492 68.5397H51.7949C54.5509 68.5397 56.7949 66.1505 56.7949 63.2162V21.6929C56.7949 20.7389 56.5209 19.0737 54.1569 15.6433ZM45.8809 12.0191C47.7989 14.0611 49.3049 15.9052 50.4169 17.4341H40.7949V7.18958C42.2309 8.37352 43.9629 9.97696 45.8809 12.0191ZM52.7949 63.2162C52.7949 63.7932 52.3369 64.2809 51.7949 64.2809H5.79492C5.25292 64.2809 4.79492 63.7932 4.79492 63.2162V5.72242C4.79492 5.14535 5.25292 4.65772 5.79492 4.65772C5.79492 4.65772 36.7929 4.65772 36.7949 4.65772V19.5635C36.7949 20.7389 37.6909 21.6929 38.7949 21.6929H52.7949V63.2162Z" fill="#DCDCDC"/>
<path d="M42.7949 55.7632H14.7949C13.6909 55.7632 12.7949 54.8092 12.7949 53.6338C12.7949 52.4584 13.6909 51.5044 14.7949 51.5044H42.7949C43.8989 51.5044 44.7949 52.4584 44.7949 53.6338C44.7949 54.8092 43.8989 55.7632 42.7949 55.7632Z" fill="#DCDCDC"/>
<path d="M42.7949 47.2456H14.7949C13.6909 47.2456 12.7949 46.2916 12.7949 45.1162C12.7949 43.9408 13.6909 42.9868 14.7949 42.9868H42.7949C43.8989 42.9868 44.7949 43.9408 44.7949 45.1162C44.7949 46.2916 43.8989 47.2456 42.7949 47.2456Z" fill="#DCDCDC"/>
<path d="M42.7949 38.728H14.7949C13.6909 38.728 12.7949 37.7741 12.7949 36.5986C12.7949 35.4232 13.6909 34.4692 14.7949 34.4692H42.7949C43.8989 34.4692 44.7949 35.4232 44.7949 36.5986C44.7949 37.7741 43.8989 38.728 42.7949 38.728Z" fill="#DCDCDC"/>
</svg>
