<svg width="57" height="70" viewBox="0 0 57 70" fill="none" xmlns="http://www.w3.org/2000/svg">
<path d="M48.4941 60.4837H8.49414V51.9661L20.4941 30.6721L36.9321 51.9661L48.4941 43.4485V60.4837Z" fill="#DCDCDC"/>
<path d="M48.4941 32.8015C48.4941 36.3299 45.8081 39.1897 42.4941 39.1897C39.1801 39.1897 36.4941 36.3299 36.4941 32.8015C36.4941 29.2731 39.1801 26.4133 42.4941 26.4133C45.8081 26.4133 48.4941 29.2731 48.4941 32.8015Z" fill="#DCDCDC"/>
<path d="M53.8561 16.105C52.4681 14.0884 50.5321 11.7333 48.4081 9.46975C46.2841 7.2062 44.0701 5.14707 42.1761 3.66927C38.9521 1.15232 37.3901 0.860596 36.4941 0.860596H5.49414C2.73814 0.860596 0.494141 3.24765 0.494141 6.18409V63.6778C0.494141 66.6122 2.73814 69.0013 5.49414 69.0013H51.4941C54.2501 69.0013 56.4941 66.6122 56.4941 63.6778V22.1546C56.4941 21.2006 56.2201 19.5354 53.8561 16.105ZM45.5801 12.4807C47.4981 14.5228 49.0041 16.3669 50.1161 17.8958H40.4941V7.65125C41.9301 8.83519 43.6621 10.4386 45.5801 12.4807ZM52.4941 63.6778C52.4941 64.2549 52.0361 64.7425 51.4941 64.7425H5.49414C4.95214 64.7425 4.49414 64.2549 4.49414 63.6778V6.18409C4.49414 5.60702 4.95214 5.11939 5.49414 5.11939C5.49414 5.11939 36.4921 5.11939 36.4941 5.11939V20.0252C36.4941 21.2006 37.3901 22.1546 38.4941 22.1546H52.4941V63.6778Z" fill="#DCDCDC"/>
</svg>
