<svg width="57" height="69" viewBox="0 0 57 69" fill="none" xmlns="http://www.w3.org/2000/svg">
<path d="M48.7318 39.6246C47.8778 38.7303 45.9878 38.2554 43.1078 38.215C41.1598 38.1916 38.8138 38.3747 36.3478 38.7431C35.2438 38.0638 34.1038 37.327 33.2118 36.4369C30.8078 34.0478 28.8018 30.7302 27.5498 27.0804C27.6318 26.7397 27.6998 26.4394 27.7658 26.1349C27.7658 26.1349 29.1198 17.9452 28.7618 15.177C28.7118 14.798 28.6818 14.6873 28.5858 14.3913L28.4678 14.0697C28.0998 13.1647 27.3778 12.2065 26.2458 12.2598L25.5638 12.2363C24.3018 12.2363 23.2718 12.9241 23.0018 13.9505C22.1798 17.1744 23.0278 21.9954 24.5638 28.2409L24.1698 29.2587C23.0698 32.1121 21.6938 34.9847 20.4778 37.5208L20.3198 37.8509C19.0418 40.5147 17.8798 42.7762 16.8298 44.6926L15.7438 45.3038C15.6638 45.3485 13.8038 46.3961 13.3678 46.6772C9.66379 49.0323 7.20979 51.7047 6.80379 53.8256C6.67379 54.5028 6.76979 55.3694 7.42979 55.7697L8.47979 56.3319C8.93579 56.5747 9.41579 56.6982 9.90779 56.6982C12.5458 56.6982 15.6078 53.1996 19.8258 45.3612C24.6958 43.6726 30.2418 42.2694 35.1018 41.4964C38.8058 43.7174 43.3598 45.259 46.2358 45.259C46.7458 45.259 47.1858 45.2079 47.5438 45.1057C48.0958 44.9503 48.5598 44.616 48.8438 44.1603C49.4018 43.2659 49.5138 42.0351 49.3638 40.7745C49.3178 40.3998 49.0378 39.9377 48.7338 39.6225L48.7318 39.6246ZM9.33379 54.5688C9.81579 53.1676 11.7178 50.3994 14.5338 47.9442C14.7098 47.7909 15.1458 47.3565 15.5458 46.9519C12.6018 51.9517 10.6298 53.9427 9.33379 54.5688V54.5688ZM26.0078 13.6864C26.8558 13.6864 27.3378 15.9628 27.3778 18.0943C27.4178 20.2258 26.9498 21.7249 26.3678 22.8322C25.8858 21.1926 25.6538 18.6075 25.6538 16.9167C25.6538 16.9167 25.6178 13.6864 26.0078 13.6864ZM21.0338 42.8209C21.6238 41.6944 22.2398 40.5084 22.8678 39.2499C24.3978 36.1686 25.3658 33.756 26.0858 31.7736C27.5178 34.5482 29.3018 36.9054 31.3978 38.7942C31.6598 39.0305 31.9358 39.2669 32.2278 39.5033C27.9638 40.4019 24.2798 41.4943 21.0358 42.8209H21.0338ZM47.9118 42.5653C47.6518 42.7378 46.9078 42.8379 46.4298 42.8379C44.8858 42.8379 42.9758 42.0862 40.2978 40.864C41.3278 40.783 42.2698 40.7426 43.1158 40.7426C44.6638 40.7426 45.1238 40.7362 46.6378 41.1472C48.1518 41.5581 48.1718 42.3929 47.9118 42.5675V42.5653Z" fill="#DCDCDC"/>
<path d="M53.4675 15.6433C52.0795 13.6267 50.1435 11.2716 48.0195 9.00808C45.8955 6.74453 43.6815 4.6854 41.7875 3.2076C38.5635 0.690653 37.0015 0.398926 36.1055 0.398926H5.10547C2.34947 0.398926 0.105469 2.78598 0.105469 5.72242V63.2162C0.105469 66.1505 2.34747 68.5397 5.10547 68.5397H51.1055C53.8615 68.5397 56.1055 66.1505 56.1055 63.2162V21.6929C56.1055 20.7389 55.8315 19.0737 53.4675 15.6433ZM45.1915 12.0191C47.1095 14.0611 48.6155 15.9052 49.7275 17.4341H40.1055V7.18958C41.5415 8.37352 43.2735 9.97696 45.1915 12.0191ZM52.1055 63.2162C52.1055 63.7932 51.6475 64.2809 51.1055 64.2809H5.10547C4.56347 64.2809 4.10547 63.7932 4.10547 63.2162V5.72242C4.10547 5.14535 4.56347 4.65772 5.10547 4.65772C5.10547 4.65772 36.1035 4.65772 36.1055 4.65772V19.5635C36.1055 20.7389 37.0015 21.6929 38.1055 21.6929H52.1055V63.2162Z" fill="#DCDCDC"/>
</svg>
