<svg width="57" height="69" viewBox="0 0 57 69" fill="none" xmlns="http://www.w3.org/2000/svg">
<path d="M54.1667 24.2519C52.7787 22.2354 50.8427 19.8803 48.7187 17.6167C46.5947 15.3532 44.3807 13.294 42.4867 11.8162C39.2627 9.2993 37.7007 9.00757 36.8047 9.00757H13.8047C11.0467 9.00757 8.80469 11.3968 8.80469 14.3311V63.3072C8.80469 66.2415 11.0467 68.6307 13.8047 68.6307H51.8047C54.5607 68.6307 56.8047 66.2415 56.8047 63.3072V30.3016C56.8047 29.3476 56.5307 27.6824 54.1667 24.2519V24.2519ZM45.8907 20.6277C47.8087 22.6698 49.3147 24.5138 50.4267 26.0428H40.8047V15.7982C42.2407 16.9822 43.9727 18.5856 45.8907 20.6277ZM52.8047 63.3072C52.8047 63.8843 52.3467 64.3719 51.8047 64.3719H13.8047C13.2627 64.3719 12.8047 63.8843 12.8047 63.3072V14.3311C12.8047 13.754 13.2627 13.2664 13.8047 13.2664C13.8047 13.2664 36.8027 13.2664 36.8047 13.2664V28.1722C36.8047 29.3476 37.7007 30.3016 38.8047 30.3016H52.8047V63.3072Z" fill="#DCDCDC"/>
<path d="M34.4867 3.29867C31.2627 0.781718 29.7007 0.48999 28.8047 0.48999H5.80469C3.04869 0.48999 0.804688 2.87705 0.804688 5.81349V54.7896C0.804688 57.3598 2.52469 59.5105 4.80469 60.0067V5.81349C4.80469 5.23642 5.26269 4.74879 5.80469 4.74879H36.2347C35.6327 4.2207 35.0447 3.73306 34.4887 3.29867H34.4867Z" fill="#DCDCDC"/>
</svg>
