<svg width="57" height="70" viewBox="0 0 57 70" fill="none" xmlns="http://www.w3.org/2000/svg">
<path d="M20.8047 26.4133L40.8047 41.3191L20.8047 56.2249V26.4133Z" fill="#DCDCDC"/>
<path d="M54.1667 16.105C52.7787 14.0884 50.8427 11.7333 48.7187 9.46975C46.5947 7.2062 44.3807 5.14707 42.4867 3.66927C39.2627 1.15232 37.7007 0.860596 36.8047 0.860596H5.80469C3.04869 0.860596 0.804688 3.24765 0.804688 6.18409V63.6778C0.804688 66.6122 3.04869 69.0013 5.80469 69.0013H51.8047C54.5607 69.0013 56.8047 66.6122 56.8047 63.6778V22.1546C56.8047 21.2006 56.5307 19.5354 54.1667 16.105ZM45.8907 12.4807C47.8087 14.5228 49.3147 16.3669 50.4267 17.8958H40.8047V7.65125C42.2407 8.83519 43.9727 10.4386 45.8907 12.4807ZM52.8047 63.6778C52.8047 64.2549 52.3467 64.7425 51.8047 64.7425H5.80469C5.26269 64.7425 4.80469 64.2549 4.80469 63.6778V6.18409C4.80469 5.60702 5.26269 5.11939 5.80469 5.11939C5.80469 5.11939 36.8027 5.11939 36.8047 5.11939V20.0252C36.8047 21.2006 37.7007 22.1546 38.8047 22.1546H52.8047V63.6778Z" fill="#DCDCDC"/>
</svg>
